<svg width="149" height="44" viewBox="0 0 149 44" fill="none" xmlns="http://www.w3.org/2000/svg">
<path d="M21.4922 27L24.917 17.1357H26.6738V19.1045H26.0723L23.6592 27H21.4922ZM23.3242 24.6074L23.8301 23.0625H28.3896L28.8955 24.6074H23.3242ZM28.6016 27L26.1953 19.1045V17.1357H27.3438L30.7754 27H28.6016ZM32.252 29.4951V19.4736H34.248V20.6357H34.3711C34.5033 20.3669 34.6764 20.1367 34.8906 19.9453C35.1094 19.7539 35.3646 19.6081 35.6562 19.5078C35.9479 19.403 36.2715 19.3506 36.627 19.3506C37.2559 19.3506 37.7982 19.5078 38.2539 19.8223C38.7096 20.1367 39.0605 20.5833 39.3066 21.1621C39.5573 21.7363 39.6826 22.4245 39.6826 23.2266V23.2402C39.6826 24.0469 39.5596 24.7396 39.3135 25.3184C39.0674 25.8971 38.7165 26.3415 38.2607 26.6514C37.805 26.9613 37.2604 27.1162 36.627 27.1162C36.2806 27.1162 35.9593 27.0638 35.6631 26.959C35.3714 26.8496 35.1139 26.6969 34.8906 26.501C34.6719 26.305 34.4987 26.0703 34.3711 25.7969H34.248V29.4951H32.252ZM35.9434 25.4619C36.2988 25.4619 36.6019 25.373 36.8525 25.1953C37.1077 25.0176 37.3037 24.7624 37.4404 24.4297C37.5817 24.097 37.6523 23.7005 37.6523 23.2402V23.2266C37.6523 22.7663 37.5817 22.3698 37.4404 22.0371C37.3037 21.7044 37.1077 21.4492 36.8525 21.2715C36.6019 21.0938 36.2988 21.0049 35.9434 21.0049C35.5924 21.0049 35.2871 21.0938 35.0273 21.2715C34.7721 21.4492 34.5739 21.7044 34.4326 22.0371C34.2959 22.3652 34.2275 22.7617 34.2275 23.2266V23.2402C34.2275 23.696 34.2982 24.0924 34.4395 24.4297C34.5807 24.7624 34.779 25.0176 35.0342 25.1953C35.2939 25.373 35.597 25.4619 35.9434 25.4619ZM41.3164 29.4951V19.4736H43.3125V20.6357H43.4355C43.5677 20.3669 43.7409 20.1367 43.9551 19.9453C44.1738 19.7539 44.429 19.6081 44.7207 19.5078C45.0124 19.403 45.3359 19.3506 45.6914 19.3506C46.3203 19.3506 46.8626 19.5078 47.3184 19.8223C47.7741 20.1367 48.125 20.5833 48.3711 21.1621C48.6217 21.7363 48.7471 22.4245 48.7471 23.2266V23.2402C48.7471 24.0469 48.624 24.7396 48.3779 25.3184C48.1318 25.8971 47.7809 26.3415 47.3252 26.6514C46.8695 26.9613 46.3249 27.1162 45.6914 27.1162C45.3451 27.1162 45.0238 27.0638 44.7275 26.959C44.4359 26.8496 44.1784 26.6969 43.9551 26.501C43.7363 26.305 43.5632 26.0703 43.4355 25.7969H43.3125V29.4951H41.3164ZM45.0078 25.4619C45.3633 25.4619 45.6663 25.373 45.917 25.1953C46.1722 25.0176 46.3682 24.7624 46.5049 24.4297C46.6462 24.097 46.7168 23.7005 46.7168 23.2402V23.2266C46.7168 22.7663 46.6462 22.3698 46.5049 22.0371C46.3682 21.7044 46.1722 21.4492 45.917 21.2715C45.6663 21.0938 45.3633 21.0049 45.0078 21.0049C44.6569 21.0049 44.3516 21.0938 44.0918 21.2715C43.8366 21.4492 43.6383 21.7044 43.4971 22.0371C43.3604 22.3652 43.292 22.7617 43.292 23.2266V23.2402C43.292 23.696 43.3626 24.0924 43.5039 24.4297C43.6452 24.7624 43.8434 25.0176 44.0986 25.1953C44.3584 25.373 44.6615 25.4619 45.0078 25.4619ZM50.4492 27V16.5957H52.4453V27H50.4492ZM57.8184 27.1572C57.0573 27.1572 56.401 27 55.8496 26.6855C55.3027 26.3665 54.8812 25.9154 54.585 25.332C54.2887 24.7487 54.1406 24.0537 54.1406 23.2471V23.2402C54.1406 22.4427 54.2865 21.75 54.5781 21.1621C54.8743 20.5742 55.2913 20.1185 55.8291 19.7949C56.3714 19.4714 57.0072 19.3096 57.7363 19.3096C58.4701 19.3096 59.1035 19.4668 59.6367 19.7812C60.1699 20.0957 60.5801 20.5355 60.8672 21.1006C61.1543 21.6657 61.2979 22.3288 61.2979 23.0898V23.7119H55.1387V22.4609H60.3408L59.4043 23.6436V22.8438C59.4043 22.3926 59.3337 22.0166 59.1924 21.7158C59.0557 21.415 58.8643 21.1895 58.6182 21.0391C58.3766 20.8841 58.0941 20.8066 57.7705 20.8066C57.4515 20.8066 57.1667 20.8864 56.916 21.0459C56.6699 21.2008 56.474 21.431 56.3281 21.7363C56.1868 22.0371 56.1162 22.4062 56.1162 22.8438V23.6504C56.1162 24.0742 56.1868 24.4365 56.3281 24.7373C56.4694 25.0381 56.6699 25.2682 56.9297 25.4277C57.1895 25.5872 57.4993 25.667 57.8594 25.667C58.151 25.667 58.3994 25.6237 58.6045 25.5371C58.8096 25.4505 58.9736 25.3503 59.0967 25.2363C59.2243 25.1178 59.3109 25.0107 59.3564 24.915L59.377 24.874H61.2363L61.2227 24.9424C61.1634 25.1794 61.0563 25.4277 60.9014 25.6875C60.7464 25.9427 60.5322 26.182 60.2588 26.4053C59.9899 26.6286 59.6527 26.8109 59.2471 26.9521C58.846 27.0889 58.3698 27.1572 57.8184 27.1572ZM66.7393 27V17.1357H70.6221C71.6019 17.1357 72.4359 17.3271 73.124 17.71C73.8122 18.0882 74.3385 18.6396 74.7031 19.3643C75.0677 20.0889 75.25 20.9661 75.25 21.9961V22.0098C75.25 23.0716 75.0677 23.974 74.7031 24.7168C74.3431 25.4596 73.819 26.027 73.1309 26.4189C72.4427 26.8063 71.6064 27 70.6221 27H66.7393ZM68.8037 25.2979H70.2939C70.9046 25.2979 71.4219 25.1725 71.8457 24.9219C72.2695 24.6712 72.5908 24.3044 72.8096 23.8213C73.0329 23.3337 73.1445 22.7412 73.1445 22.0439V22.0303C73.1445 21.3512 73.0306 20.7747 72.8027 20.3008C72.5794 19.8223 72.2536 19.46 71.8252 19.2139C71.4014 18.9632 70.891 18.8379 70.2939 18.8379H68.8037V25.2979ZM80.3223 27.1572C79.5612 27.1572 78.9049 27 78.3535 26.6855C77.8066 26.3665 77.3851 25.9154 77.0889 25.332C76.7926 24.7487 76.6445 24.0537 76.6445 23.2471V23.2402C76.6445 22.4427 76.7904 21.75 77.082 21.1621C77.3783 20.5742 77.7952 20.1185 78.333 19.7949C78.8753 19.4714 79.5111 19.3096 80.2402 19.3096C80.974 19.3096 81.6074 19.4668 82.1406 19.7812C82.6738 20.0957 83.084 20.5355 83.3711 21.1006C83.6582 21.6657 83.8018 22.3288 83.8018 23.0898V23.7119H77.6426V22.4609H82.8447L81.9082 23.6436V22.8438C81.9082 22.3926 81.8376 22.0166 81.6963 21.7158C81.5596 21.415 81.3682 21.1895 81.1221 21.0391C80.8805 20.8841 80.598 20.8066 80.2744 20.8066C79.9554 20.8066 79.6706 20.8864 79.4199 21.0459C79.1738 21.2008 78.9779 21.431 78.832 21.7363C78.6908 22.0371 78.6201 22.4062 78.6201 22.8438V23.6504C78.6201 24.0742 78.6908 24.4365 78.832 24.7373C78.9733 25.0381 79.1738 25.2682 79.4336 25.4277C79.6934 25.5872 80.0033 25.667 80.3633 25.667C80.6549 25.667 80.9033 25.6237 81.1084 25.5371C81.3135 25.4505 81.4775 25.3503 81.6006 25.2363C81.7282 25.1178 81.8148 25.0107 81.8604 24.915L81.8809 24.874H83.7402L83.7266 24.9424C83.6673 25.1794 83.5602 25.4277 83.4053 25.6875C83.2503 25.9427 83.0361 26.182 82.7627 26.4053C82.4938 26.6286 82.1566 26.8109 81.751 26.9521C81.3499 27.0889 80.8737 27.1572 80.3223 27.1572ZM88.4297 27.1572C87.7461 27.1572 87.1628 27.0638 86.6797 26.877C86.2012 26.6855 85.8252 26.4235 85.5518 26.0908C85.2829 25.7581 85.1257 25.3776 85.0801 24.9492L85.0732 24.9219H87.0352L87.0488 24.9492C87.1309 25.1816 87.2858 25.373 87.5137 25.5234C87.7461 25.6738 88.0583 25.749 88.4502 25.749C88.7054 25.749 88.9287 25.7148 89.1201 25.6465C89.3115 25.5736 89.4619 25.4756 89.5713 25.3525C89.6807 25.2295 89.7354 25.0859 89.7354 24.9219V24.9082C89.7354 24.7077 89.6533 24.5413 89.4893 24.4092C89.3252 24.277 89.0518 24.1676 88.6689 24.0811L87.4111 23.8145C86.9326 23.7142 86.5339 23.5684 86.2148 23.377C85.8958 23.181 85.6566 22.9417 85.4971 22.6592C85.3421 22.3766 85.2646 22.0485 85.2646 21.6748V21.668C85.2646 21.194 85.3945 20.7816 85.6543 20.4307C85.9186 20.0752 86.2855 19.7995 86.7549 19.6035C87.2288 19.4076 87.778 19.3096 88.4023 19.3096C89.0586 19.3096 89.6169 19.4098 90.0771 19.6104C90.5374 19.8063 90.8906 20.0706 91.1367 20.4033C91.3874 20.7314 91.5264 21.0983 91.5537 21.5039V21.5312H89.7012L89.6943 21.4971C89.6396 21.292 89.5029 21.112 89.2842 20.957C89.0654 20.7975 88.7692 20.7178 88.3955 20.7178C88.1676 20.7178 87.9648 20.752 87.7871 20.8203C87.6094 20.8887 87.4681 20.9844 87.3633 21.1074C87.263 21.2305 87.2129 21.3763 87.2129 21.5449V21.5518C87.2129 21.6839 87.2471 21.8001 87.3154 21.9004C87.3838 22.0007 87.4954 22.0872 87.6504 22.1602C87.8053 22.2331 88.0127 22.2992 88.2725 22.3584L89.5234 22.625C90.2754 22.7891 90.8314 23.0352 91.1914 23.3633C91.5514 23.6914 91.7314 24.1335 91.7314 24.6895V24.6963C91.7314 25.193 91.5902 25.626 91.3076 25.9951C91.0251 26.3643 90.6354 26.6514 90.1387 26.8564C89.6419 27.057 89.0723 27.1572 88.4297 27.1572ZM93.3789 27V19.4736H95.375V27H93.3789ZM94.3838 18.3184C94.0785 18.3184 93.8141 18.2113 93.5908 17.9971C93.3675 17.7783 93.2559 17.5163 93.2559 17.2109C93.2559 16.901 93.3675 16.639 93.5908 16.4248C93.8141 16.2061 94.0785 16.0967 94.3838 16.0967C94.6937 16.0967 94.958 16.2061 95.1768 16.4248C95.3955 16.639 95.5049 16.901 95.5049 17.2109C95.5049 17.5163 95.3955 17.7783 95.1768 17.9971C94.958 18.2113 94.6937 18.3184 94.3838 18.3184ZM100.707 29.6455C100.01 29.6455 99.4128 29.5544 98.916 29.3721C98.4238 29.1943 98.0365 28.9414 97.7539 28.6133C97.4714 28.2897 97.3027 27.916 97.248 27.4922V27.458H99.2236L99.2305 27.4854C99.2852 27.7041 99.4401 27.8818 99.6953 28.0186C99.9551 28.1553 100.306 28.2236 100.748 28.2236C101.281 28.2236 101.696 28.1029 101.992 27.8613C102.288 27.6243 102.437 27.2871 102.437 26.8496V25.4482H102.313C102.177 25.7126 101.997 25.9359 101.773 26.1182C101.555 26.3005 101.299 26.4395 101.008 26.5352C100.721 26.6263 100.404 26.6719 100.058 26.6719C99.4287 26.6719 98.8841 26.5215 98.4238 26.2207C97.9681 25.9154 97.6149 25.4915 97.3643 24.9492C97.1182 24.4069 96.9951 23.7803 96.9951 23.0693V23.0557C96.9951 22.3174 97.1182 21.6702 97.3643 21.1143C97.6149 20.5583 97.9704 20.1253 98.4307 19.8154C98.8955 19.5055 99.4492 19.3506 100.092 19.3506C100.438 19.3506 100.755 19.4053 101.042 19.5146C101.334 19.624 101.589 19.779 101.808 19.9795C102.026 20.18 102.202 20.4215 102.334 20.7041H102.43V19.4736H104.426V26.7676C104.426 27.3555 104.273 27.8636 103.968 28.292C103.667 28.7249 103.239 29.0576 102.683 29.29C102.127 29.527 101.468 29.6455 100.707 29.6455ZM100.734 25.1406C101.094 25.1406 101.402 25.054 101.657 24.8809C101.912 24.7031 102.108 24.4593 102.245 24.1494C102.386 23.8395 102.457 23.4772 102.457 23.0625V23.0488C102.457 22.6387 102.386 22.2764 102.245 21.9619C102.108 21.6475 101.912 21.4036 101.657 21.2305C101.402 21.0573 101.094 20.9707 100.734 20.9707C100.374 20.9707 100.069 21.0573 99.8184 21.2305C99.5677 21.4036 99.374 21.6475 99.2373 21.9619C99.1051 22.2718 99.0391 22.6341 99.0391 23.0488V23.0625C99.0391 23.4727 99.1051 23.835 99.2373 24.1494C99.374 24.4593 99.5677 24.7031 99.8184 24.8809C100.069 25.054 100.374 25.1406 100.734 25.1406ZM106.422 27V19.4736H108.418V20.6357H108.541C108.714 20.2256 108.983 19.902 109.348 19.665C109.712 19.4281 110.163 19.3096 110.701 19.3096C111.54 19.3096 112.178 19.5557 112.615 20.0479C113.057 20.5355 113.278 21.2305 113.278 22.1328V27H111.282V22.584C111.282 22.0508 111.171 21.6475 110.947 21.374C110.724 21.1006 110.375 20.9639 109.901 20.9639C109.596 20.9639 109.332 21.0345 109.108 21.1758C108.89 21.3125 108.719 21.5062 108.596 21.7568C108.477 22.0075 108.418 22.3037 108.418 22.6455V27H106.422ZM121.037 27L118.426 17.1357H120.572L122.11 24.1836H122.22L124.018 17.1357H125.761L127.593 24.1836H127.702L129.227 17.1357H131.359L128.741 27H126.807L124.94 20.3555H124.831L122.985 27H121.037ZM132.973 27V19.4736H134.969V27H132.973ZM133.978 18.3184C133.672 18.3184 133.408 18.2113 133.185 17.9971C132.961 17.7783 132.85 17.5163 132.85 17.2109C132.85 16.901 132.961 16.639 133.185 16.4248C133.408 16.2061 133.672 16.0967 133.978 16.0967C134.287 16.0967 134.552 16.2061 134.771 16.4248C134.989 16.639 135.099 16.901 135.099 17.2109C135.099 17.5163 134.989 17.7783 134.771 17.9971C134.552 18.2113 134.287 18.3184 133.978 18.3184ZM137.047 27V16.5957H139.043V27H137.047ZM141.784 27L139.474 23.7324L140.964 22.5361L144.143 27H141.784ZM138.906 24.6211L138.838 22.4473H139.166L141.682 19.4736H143.944L140.848 22.8916L139.781 23.6914L138.906 24.6211ZM145.414 27V19.4736H147.41V27H145.414ZM146.419 18.3184C146.114 18.3184 145.849 18.2113 145.626 17.9971C145.403 17.7783 145.291 17.5163 145.291 17.2109C145.291 16.901 145.403 16.639 145.626 16.4248C145.849 16.2061 146.114 16.0967 146.419 16.0967C146.729 16.0967 146.993 16.2061 147.212 16.4248C147.431 16.639 147.54 16.901 147.54 17.2109C147.54 17.5163 147.431 17.7783 147.212 17.9971C146.993 18.2113 146.729 18.3184 146.419 18.3184Z" fill="white"/>
<path d="M9.43015 18.9839L9.43016 18.9839L9.67301 18.892L10.1329 20.108L9.89343 20.1985C9.85617 20.2131 9.80665 20.2329 9.74571 20.2573L9.73925 20.2599C9.5536 20.3342 9.27576 20.4454 9.04893 20.5245C8.7169 20.6402 7.96251 20.8352 7.2313 20.8352H7.1675L7.10492 20.8228L6.30253 20.6637L6.23578 20.8214L6.2055 20.8929L6.15921 20.9553C6.07593 21.0676 5.99511 21.2649 5.95204 21.4891C5.94951 21.5022 5.94717 21.5152 5.945 21.528C6.41053 21.6116 7.03867 21.7131 7.27352 21.7284L7.83114 21.7647L7.87892 22.3214C7.92443 22.8517 8.08271 23.6618 8.21302 24.1416L8.50809 25.2282L7.41961 24.9404C6.6352 24.733 6.33341 24.6976 5.91985 24.8973L5.35456 23.7267C5.84992 23.4875 6.29652 23.4376 6.73404 23.4772C6.70188 23.3046 6.67232 23.1299 6.6473 22.9609C6.10144 22.8812 5.39825 22.7532 5.17281 22.702L4.83232 22.6248L4.70874 22.2982C4.58628 21.9746 4.61443 21.561 4.67539 21.2437C4.73403 20.9386 4.84921 20.5864 5.04179 20.287C5.0131 20.2753 4.98613 20.2643 4.96121 20.2541L4.95505 20.2516C4.9127 20.2342 4.8772 20.2197 4.84833 20.2081L9.43015 18.9839ZM9.43015 18.9839L9.42351 18.9864C9.37983 19.0035 9.32347 19.0261 9.26267 19.0504C9.06963 19.1277 8.81719 19.2286 8.62109 19.2969C8.38826 19.3781 7.81842 19.5238 7.29194 19.5345L6.08035 19.2944M9.43015 18.9839L6.08035 19.2944M6.08035 19.2944C5.86397 19.2186 5.62393 19.1206 5.44729 19.0484C5.40601 19.0315 5.36687 19.0155 5.33402 19.0022L5.33401 19.0022C4.87382 18.8169 4.64217 18.7564 4.46702 18.7564C4.10065 18.7564 3.80998 18.9003 3.58342 19.0697C3.38165 19.2206 3.197 19.4189 3.043 19.5842C3.03734 19.5903 3.03173 19.5964 3.02615 19.6023C2.8237 19.8196 2.61801 20.0947 2.47033 20.4994C2.32643 20.8937 2.25 21.3768 2.25 22C2.25 23.0184 2.33719 23.9793 2.68336 24.9327L1.47605 25.6398C0.978102 24.4506 0.65 23.0714 0.65 21.7542C0.65 18.5699 2.65285 17.0492 4.46702 17.0492C4.6835 17.0492 4.90088 17.0841 5.12386 17.1436C5.16789 17.1553 5.21203 17.168 5.25634 17.1815L5.44582 16.5597L5.25634 17.1815C5.50543 17.2574 5.74572 17.355 6.00097 17.4592C6.00911 17.4625 6.0173 17.4659 6.02552 17.4692C6.28693 17.5759 6.58675 17.6983 6.87531 17.7677C7.02677 17.804 7.19215 17.8304 7.36488 17.8304C7.41586 17.8304 7.46579 17.8279 7.51436 17.8235L7.45572 17.1761L7.51436 17.8235C7.8899 17.7895 8.30162 17.6242 8.63917 17.4887C8.65654 17.4818 8.67371 17.4749 8.69067 17.4681C9.28818 17.2288 9.87169 17.0024 10.505 17.0024C10.6264 17.0024 10.8233 17.0054 11.0686 17.0378C11.3961 17.0811 11.8023 17.176 12.2161 17.3809C12.5198 17.5312 12.8301 17.742 13.1197 18.0401C12.4554 18.7049 11.8252 19.5598 11.5538 20.6233L11.5491 20.6416L11.5455 20.6601C11.5359 20.7098 11.527 20.76 11.5189 20.8108C11.2992 20.8156 11.0691 20.8455 10.8408 20.8915C10.2959 21.0012 9.69686 21.2156 9.16033 21.489L8.77712 21.6843L8.807 22.1133C8.87434 23.0804 9.1167 23.9288 9.45632 24.6591C9.70217 25.1877 9.99795 25.6522 10.3127 26.0542C10.3292 26.0751 10.3456 26.0959 10.3621 26.1165C10.2832 26.2291 10.2117 26.3288 10.1435 26.4201C9.88111 26.3125 9.55972 26.1956 9.17487 26.1013C8.96952 26.0509 8.74609 26.0069 8.50404 25.9743C8.28613 25.9449 8.05413 25.9248 7.80742 25.9172C7.73487 25.915 7.66098 25.9138 7.58574 25.9138C6.22288 25.9138 5.26114 26.314 4.71757 26.5462L4.97285 27.1439L4.71756 26.5462C4.66825 26.5672 4.6251 26.5854 4.5875 26.6011L5.08835 27.8008C5.12945 27.7836 5.17584 27.764 5.22814 27.7417C5.72582 27.5292 6.49104 27.2138 7.58574 27.2138C7.63791 27.2138 7.68924 27.2145 7.73975 27.2158C7.95158 27.2213 8.14814 27.2381 8.33034 27.2626C8.52182 27.2884 8.69865 27.323 8.86218 27.3631C9.30435 27.4713 9.64921 27.6191 9.92091 27.7386C9.98543 27.767 10.0365 27.7893 10.0774 27.807L10.4971 27.9888L10.8099 27.6551C10.8948 27.5645 10.9911 27.4507 11.1013 27.3083C11.2621 27.1002 11.4247 26.8677 11.6128 26.5941L11.6156 26.59C11.6544 26.5327 11.692 26.4753 11.7282 26.4181L11.996 25.9958L11.6565 25.6287C11.5829 25.5491 11.5097 25.4656 11.4375 25.3784C11.4035 25.3373 11.3697 25.2954 11.3362 25.2526C11.0774 24.9221 10.8355 24.5419 10.6351 24.1109C10.411 23.629 10.2373 23.0808 10.1501 22.463C10.4739 22.3282 10.8032 22.2252 11.0974 22.1659C11.2461 22.136 11.3775 22.1189 11.489 22.1127C11.626 23.3683 12.2233 24.2595 12.8255 24.8456C13.1352 25.1469 13.4485 25.3705 13.7068 25.5276C13.5897 25.8342 13.4092 26.2539 13.1566 26.7122C13.0342 26.9343 12.8955 27.1644 12.7395 27.3944C12.3529 27.9567 12.0017 28.4503 11.6168 28.809C11.243 29.1572 10.892 29.3266 10.5068 29.3266C10.0682 29.3266 9.80017 29.2122 9.42198 29.0454L9.41709 29.0433C8.98111 28.8511 8.44684 28.6156 7.58574 28.6156C6.73563 28.6156 6.16042 28.8622 5.70285 29.0584L5.69025 29.0638C5.28217 29.2388 5.00829 29.35 4.63088 29.35C4.30151 29.35 3.98242 29.2049 3.60782 28.8547C3.22208 28.4941 2.84369 27.9791 2.39363 27.3411C2.2783 27.1752 2.16482 26.9969 2.05447 26.8076L3.83025 25.7675L4.34485 25.466L4.08874 24.9275C3.66675 24.04 3.55 23.1272 3.55 22C3.55 21.4788 3.61453 21.1561 3.69155 20.9451C3.76479 20.7444 3.85996 20.6145 3.9773 20.4885C4.1571 20.2955 4.26484 20.1834 4.36196 20.1108C4.4011 20.0815 4.42668 20.0679 4.44279 20.0616C4.50546 20.0792 4.62878 20.1197 4.84833 20.2081L6.08035 19.2944ZM4.46702 20.0564C4.46544 20.0564 4.46388 20.0564 4.46235 20.0564C4.46457 20.0562 4.46593 20.0563 4.46661 20.0564C4.4668 20.0564 4.46693 20.0564 4.46702 20.0564ZM13.8675 25.0572C13.8683 25.0541 13.8684 25.0537 13.8676 25.0568L13.8675 25.0572ZM9.36993 14.4529L9.36982 14.4528L9.36115 14.4637C9.211 14.6517 9.01892 14.8314 8.80095 14.9882C8.70949 15.0539 8.61452 15.1149 8.51764 15.1702C8.48308 15.1899 8.44834 15.2089 8.41349 15.2271C8.22055 15.3277 8.0321 15.4003 7.8583 15.4455C7.86405 15.4087 7.87065 15.3718 7.87806 15.3348L7.87846 15.3328C7.88246 15.3129 7.88669 15.293 7.89115 15.2731L7.2569 15.1309L7.89115 15.2731C7.93007 15.0996 7.98624 14.9268 8.05602 14.7588C8.08221 14.6957 8.11024 14.6335 8.13986 14.5724C8.16298 14.5247 8.18704 14.4777 8.21193 14.4315C8.34444 14.1857 8.49804 13.9673 8.65133 13.7911L8.65135 13.7912L8.65552 13.7863C8.80323 13.6132 8.98294 13.4468 9.18473 13.2965C9.36511 13.1622 9.55968 13.0432 9.75921 12.9449C9.84306 12.9036 9.92734 12.8662 10.0114 12.8329C10.0517 12.8169 10.0917 12.802 10.1313 12.7881C10.0762 13.1446 9.95516 13.4994 9.78487 13.8268C9.74697 13.8997 9.70678 13.9709 9.66458 14.0401L10.2196 14.3785L9.66458 14.0401C9.57422 14.1884 9.47506 14.3268 9.36993 14.4529Z" stroke="white" stroke-width="1.3"/>
</svg>
