<svg width="146" height="44" viewBox="0 0 146 44" fill="none" xmlns="http://www.w3.org/2000/svg">
<path d="M18.4922 27L21.917 17.1357H23.6738V19.1045H23.0723L20.6592 27H18.4922ZM20.3242 24.6074L20.8301 23.0625H25.3896L25.8955 24.6074H20.3242ZM25.6016 27L23.1953 19.1045V17.1357H24.3438L27.7754 27H25.6016ZM29.252 29.4951V19.4736H31.248V20.6357H31.3711C31.5033 20.3669 31.6764 20.1367 31.8906 19.9453C32.1094 19.7539 32.3646 19.6081 32.6562 19.5078C32.9479 19.403 33.2715 19.3506 33.627 19.3506C34.2559 19.3506 34.7982 19.5078 35.2539 19.8223C35.7096 20.1367 36.0605 20.5833 36.3066 21.1621C36.5573 21.7363 36.6826 22.4245 36.6826 23.2266V23.2402C36.6826 24.0469 36.5596 24.7396 36.3135 25.3184C36.0674 25.8971 35.7165 26.3415 35.2607 26.6514C34.805 26.9613 34.2604 27.1162 33.627 27.1162C33.2806 27.1162 32.9593 27.0638 32.6631 26.959C32.3714 26.8496 32.1139 26.6969 31.8906 26.501C31.6719 26.305 31.4987 26.0703 31.3711 25.7969H31.248V29.4951H29.252ZM32.9434 25.4619C33.2988 25.4619 33.6019 25.373 33.8525 25.1953C34.1077 25.0176 34.3037 24.7624 34.4404 24.4297C34.5817 24.097 34.6523 23.7005 34.6523 23.2402V23.2266C34.6523 22.7663 34.5817 22.3698 34.4404 22.0371C34.3037 21.7044 34.1077 21.4492 33.8525 21.2715C33.6019 21.0938 33.2988 21.0049 32.9434 21.0049C32.5924 21.0049 32.2871 21.0938 32.0273 21.2715C31.7721 21.4492 31.5739 21.7044 31.4326 22.0371C31.2959 22.3652 31.2275 22.7617 31.2275 23.2266V23.2402C31.2275 23.696 31.2982 24.0924 31.4395 24.4297C31.5807 24.7624 31.779 25.0176 32.0342 25.1953C32.2939 25.373 32.597 25.4619 32.9434 25.4619ZM38.3164 29.4951V19.4736H40.3125V20.6357H40.4355C40.5677 20.3669 40.7409 20.1367 40.9551 19.9453C41.1738 19.7539 41.429 19.6081 41.7207 19.5078C42.0124 19.403 42.3359 19.3506 42.6914 19.3506C43.3203 19.3506 43.8626 19.5078 44.3184 19.8223C44.7741 20.1367 45.125 20.5833 45.3711 21.1621C45.6217 21.7363 45.7471 22.4245 45.7471 23.2266V23.2402C45.7471 24.0469 45.624 24.7396 45.3779 25.3184C45.1318 25.8971 44.7809 26.3415 44.3252 26.6514C43.8695 26.9613 43.3249 27.1162 42.6914 27.1162C42.3451 27.1162 42.0238 27.0638 41.7275 26.959C41.4359 26.8496 41.1784 26.6969 40.9551 26.501C40.7363 26.305 40.5632 26.0703 40.4355 25.7969H40.3125V29.4951H38.3164ZM42.0078 25.4619C42.3633 25.4619 42.6663 25.373 42.917 25.1953C43.1722 25.0176 43.3682 24.7624 43.5049 24.4297C43.6462 24.097 43.7168 23.7005 43.7168 23.2402V23.2266C43.7168 22.7663 43.6462 22.3698 43.5049 22.0371C43.3682 21.7044 43.1722 21.4492 42.917 21.2715C42.6663 21.0938 42.3633 21.0049 42.0078 21.0049C41.6569 21.0049 41.3516 21.0938 41.0918 21.2715C40.8366 21.4492 40.6383 21.7044 40.4971 22.0371C40.3604 22.3652 40.292 22.7617 40.292 23.2266V23.2402C40.292 23.696 40.3626 24.0924 40.5039 24.4297C40.6452 24.7624 40.8434 25.0176 41.0986 25.1953C41.3584 25.373 41.6615 25.4619 42.0078 25.4619ZM47.4492 27V16.5957H49.4453V27H47.4492ZM54.8184 27.1572C54.0573 27.1572 53.401 27 52.8496 26.6855C52.3027 26.3665 51.8812 25.9154 51.585 25.332C51.2887 24.7487 51.1406 24.0537 51.1406 23.2471V23.2402C51.1406 22.4427 51.2865 21.75 51.5781 21.1621C51.8743 20.5742 52.2913 20.1185 52.8291 19.7949C53.3714 19.4714 54.0072 19.3096 54.7363 19.3096C55.4701 19.3096 56.1035 19.4668 56.6367 19.7812C57.1699 20.0957 57.5801 20.5355 57.8672 21.1006C58.1543 21.6657 58.2979 22.3288 58.2979 23.0898V23.7119H52.1387V22.4609H57.3408L56.4043 23.6436V22.8438C56.4043 22.3926 56.3337 22.0166 56.1924 21.7158C56.0557 21.415 55.8643 21.1895 55.6182 21.0391C55.3766 20.8841 55.0941 20.8066 54.7705 20.8066C54.4515 20.8066 54.1667 20.8864 53.916 21.0459C53.6699 21.2008 53.474 21.431 53.3281 21.7363C53.1868 22.0371 53.1162 22.4062 53.1162 22.8438V23.6504C53.1162 24.0742 53.1868 24.4365 53.3281 24.7373C53.4694 25.0381 53.6699 25.2682 53.9297 25.4277C54.1895 25.5872 54.4993 25.667 54.8594 25.667C55.151 25.667 55.3994 25.6237 55.6045 25.5371C55.8096 25.4505 55.9736 25.3503 56.0967 25.2363C56.2243 25.1178 56.3109 25.0107 56.3564 24.915L56.377 24.874H58.2363L58.2227 24.9424C58.1634 25.1794 58.0563 25.4277 57.9014 25.6875C57.7464 25.9427 57.5322 26.182 57.2588 26.4053C56.9899 26.6286 56.6527 26.8109 56.2471 26.9521C55.846 27.0889 55.3698 27.1572 54.8184 27.1572ZM63.7393 27V17.1357H67.6221C68.6019 17.1357 69.4359 17.3271 70.124 17.71C70.8122 18.0882 71.3385 18.6396 71.7031 19.3643C72.0677 20.0889 72.25 20.9661 72.25 21.9961V22.0098C72.25 23.0716 72.0677 23.974 71.7031 24.7168C71.3431 25.4596 70.819 26.027 70.1309 26.4189C69.4427 26.8063 68.6064 27 67.6221 27H63.7393ZM65.8037 25.2979H67.2939C67.9046 25.2979 68.4219 25.1725 68.8457 24.9219C69.2695 24.6712 69.5908 24.3044 69.8096 23.8213C70.0329 23.3337 70.1445 22.7412 70.1445 22.0439V22.0303C70.1445 21.3512 70.0306 20.7747 69.8027 20.3008C69.5794 19.8223 69.2536 19.46 68.8252 19.2139C68.4014 18.9632 67.891 18.8379 67.2939 18.8379H65.8037V25.2979ZM77.3223 27.1572C76.5612 27.1572 75.9049 27 75.3535 26.6855C74.8066 26.3665 74.3851 25.9154 74.0889 25.332C73.7926 24.7487 73.6445 24.0537 73.6445 23.2471V23.2402C73.6445 22.4427 73.7904 21.75 74.082 21.1621C74.3783 20.5742 74.7952 20.1185 75.333 19.7949C75.8753 19.4714 76.5111 19.3096 77.2402 19.3096C77.974 19.3096 78.6074 19.4668 79.1406 19.7812C79.6738 20.0957 80.084 20.5355 80.3711 21.1006C80.6582 21.6657 80.8018 22.3288 80.8018 23.0898V23.7119H74.6426V22.4609H79.8447L78.9082 23.6436V22.8438C78.9082 22.3926 78.8376 22.0166 78.6963 21.7158C78.5596 21.415 78.3682 21.1895 78.1221 21.0391C77.8805 20.8841 77.598 20.8066 77.2744 20.8066C76.9554 20.8066 76.6706 20.8864 76.4199 21.0459C76.1738 21.2008 75.9779 21.431 75.832 21.7363C75.6908 22.0371 75.6201 22.4062 75.6201 22.8438V23.6504C75.6201 24.0742 75.6908 24.4365 75.832 24.7373C75.9733 25.0381 76.1738 25.2682 76.4336 25.4277C76.6934 25.5872 77.0033 25.667 77.3633 25.667C77.6549 25.667 77.9033 25.6237 78.1084 25.5371C78.3135 25.4505 78.4775 25.3503 78.6006 25.2363C78.7282 25.1178 78.8148 25.0107 78.8604 24.915L78.8809 24.874H80.7402L80.7266 24.9424C80.6673 25.1794 80.5602 25.4277 80.4053 25.6875C80.2503 25.9427 80.0361 26.182 79.7627 26.4053C79.4938 26.6286 79.1566 26.8109 78.751 26.9521C78.3499 27.0889 77.8737 27.1572 77.3223 27.1572ZM85.4297 27.1572C84.7461 27.1572 84.1628 27.0638 83.6797 26.877C83.2012 26.6855 82.8252 26.4235 82.5518 26.0908C82.2829 25.7581 82.1257 25.3776 82.0801 24.9492L82.0732 24.9219H84.0352L84.0488 24.9492C84.1309 25.1816 84.2858 25.373 84.5137 25.5234C84.7461 25.6738 85.0583 25.749 85.4502 25.749C85.7054 25.749 85.9287 25.7148 86.1201 25.6465C86.3115 25.5736 86.4619 25.4756 86.5713 25.3525C86.6807 25.2295 86.7354 25.0859 86.7354 24.9219V24.9082C86.7354 24.7077 86.6533 24.5413 86.4893 24.4092C86.3252 24.277 86.0518 24.1676 85.6689 24.0811L84.4111 23.8145C83.9326 23.7142 83.5339 23.5684 83.2148 23.377C82.8958 23.181 82.6566 22.9417 82.4971 22.6592C82.3421 22.3766 82.2646 22.0485 82.2646 21.6748V21.668C82.2646 21.194 82.3945 20.7816 82.6543 20.4307C82.9186 20.0752 83.2855 19.7995 83.7549 19.6035C84.2288 19.4076 84.778 19.3096 85.4023 19.3096C86.0586 19.3096 86.6169 19.4098 87.0771 19.6104C87.5374 19.8063 87.8906 20.0706 88.1367 20.4033C88.3874 20.7314 88.5264 21.0983 88.5537 21.5039V21.5312H86.7012L86.6943 21.4971C86.6396 21.292 86.5029 21.112 86.2842 20.957C86.0654 20.7975 85.7692 20.7178 85.3955 20.7178C85.1676 20.7178 84.9648 20.752 84.7871 20.8203C84.6094 20.8887 84.4681 20.9844 84.3633 21.1074C84.263 21.2305 84.2129 21.3763 84.2129 21.5449V21.5518C84.2129 21.6839 84.2471 21.8001 84.3154 21.9004C84.3838 22.0007 84.4954 22.0872 84.6504 22.1602C84.8053 22.2331 85.0127 22.2992 85.2725 22.3584L86.5234 22.625C87.2754 22.7891 87.8314 23.0352 88.1914 23.3633C88.5514 23.6914 88.7314 24.1335 88.7314 24.6895V24.6963C88.7314 25.193 88.5902 25.626 88.3076 25.9951C88.0251 26.3643 87.6354 26.6514 87.1387 26.8564C86.6419 27.057 86.0723 27.1572 85.4297 27.1572ZM90.3789 27V19.4736H92.375V27H90.3789ZM91.3838 18.3184C91.0785 18.3184 90.8141 18.2113 90.5908 17.9971C90.3675 17.7783 90.2559 17.5163 90.2559 17.2109C90.2559 16.901 90.3675 16.639 90.5908 16.4248C90.8141 16.2061 91.0785 16.0967 91.3838 16.0967C91.6937 16.0967 91.958 16.2061 92.1768 16.4248C92.3955 16.639 92.5049 16.901 92.5049 17.2109C92.5049 17.5163 92.3955 17.7783 92.1768 17.9971C91.958 18.2113 91.6937 18.3184 91.3838 18.3184ZM97.707 29.6455C97.0098 29.6455 96.4128 29.5544 95.916 29.3721C95.4238 29.1943 95.0365 28.9414 94.7539 28.6133C94.4714 28.2897 94.3027 27.916 94.248 27.4922V27.458H96.2236L96.2305 27.4854C96.2852 27.7041 96.4401 27.8818 96.6953 28.0186C96.9551 28.1553 97.306 28.2236 97.748 28.2236C98.2812 28.2236 98.696 28.1029 98.9922 27.8613C99.2884 27.6243 99.4365 27.2871 99.4365 26.8496V25.4482H99.3135C99.1768 25.7126 98.9967 25.9359 98.7734 26.1182C98.5547 26.3005 98.2995 26.4395 98.0078 26.5352C97.7207 26.6263 97.404 26.6719 97.0576 26.6719C96.4287 26.6719 95.8841 26.5215 95.4238 26.2207C94.9681 25.9154 94.6149 25.4915 94.3643 24.9492C94.1182 24.4069 93.9951 23.7803 93.9951 23.0693V23.0557C93.9951 22.3174 94.1182 21.6702 94.3643 21.1143C94.6149 20.5583 94.9704 20.1253 95.4307 19.8154C95.8955 19.5055 96.4492 19.3506 97.0918 19.3506C97.4382 19.3506 97.7549 19.4053 98.042 19.5146C98.3337 19.624 98.5889 19.779 98.8076 19.9795C99.0264 20.18 99.2018 20.4215 99.334 20.7041H99.4297V19.4736H101.426V26.7676C101.426 27.3555 101.273 27.8636 100.968 28.292C100.667 28.7249 100.239 29.0576 99.6826 29.29C99.1266 29.527 98.4681 29.6455 97.707 29.6455ZM97.7344 25.1406C98.0944 25.1406 98.402 25.054 98.6572 24.8809C98.9124 24.7031 99.1084 24.4593 99.2451 24.1494C99.3864 23.8395 99.457 23.4772 99.457 23.0625V23.0488C99.457 22.6387 99.3864 22.2764 99.2451 21.9619C99.1084 21.6475 98.9124 21.4036 98.6572 21.2305C98.402 21.0573 98.0944 20.9707 97.7344 20.9707C97.3743 20.9707 97.069 21.0573 96.8184 21.2305C96.5677 21.4036 96.374 21.6475 96.2373 21.9619C96.1051 22.2718 96.0391 22.6341 96.0391 23.0488V23.0625C96.0391 23.4727 96.1051 23.835 96.2373 24.1494C96.374 24.4593 96.5677 24.7031 96.8184 24.8809C97.069 25.054 97.3743 25.1406 97.7344 25.1406ZM103.422 27V19.4736H105.418V20.6357H105.541C105.714 20.2256 105.983 19.902 106.348 19.665C106.712 19.4281 107.163 19.3096 107.701 19.3096C108.54 19.3096 109.178 19.5557 109.615 20.0479C110.057 20.5355 110.278 21.2305 110.278 22.1328V27H108.282V22.584C108.282 22.0508 108.171 21.6475 107.947 21.374C107.724 21.1006 107.375 20.9639 106.901 20.9639C106.596 20.9639 106.332 21.0345 106.108 21.1758C105.89 21.3125 105.719 21.5062 105.596 21.7568C105.477 22.0075 105.418 22.3037 105.418 22.6455V27H103.422ZM118.037 27L115.426 17.1357H117.572L119.11 24.1836H119.22L121.018 17.1357H122.761L124.593 24.1836H124.702L126.227 17.1357H128.359L125.741 27H123.807L121.94 20.3555H121.831L119.985 27H118.037ZM129.973 27V19.4736H131.969V27H129.973ZM130.978 18.3184C130.672 18.3184 130.408 18.2113 130.185 17.9971C129.961 17.7783 129.85 17.5163 129.85 17.2109C129.85 16.901 129.961 16.639 130.185 16.4248C130.408 16.2061 130.672 16.0967 130.978 16.0967C131.287 16.0967 131.552 16.2061 131.771 16.4248C131.989 16.639 132.099 16.901 132.099 17.2109C132.099 17.5163 131.989 17.7783 131.771 17.9971C131.552 18.2113 131.287 18.3184 130.978 18.3184ZM134.047 27V16.5957H136.043V27H134.047ZM138.784 27L136.474 23.7324L137.964 22.5361L141.143 27H138.784ZM135.906 24.6211L135.838 22.4473H136.166L138.682 19.4736H140.944L137.848 22.8916L136.781 23.6914L135.906 24.6211ZM142.414 27V19.4736H144.41V27H142.414ZM143.419 18.3184C143.114 18.3184 142.849 18.2113 142.626 17.9971C142.403 17.7783 142.291 17.5163 142.291 17.2109C142.291 16.901 142.403 16.639 142.626 16.4248C142.849 16.2061 143.114 16.0967 143.419 16.0967C143.729 16.0967 143.993 16.2061 144.212 16.4248C144.431 16.639 144.54 16.901 144.54 17.2109C144.54 17.5163 144.431 17.7783 144.212 17.9971C143.993 18.2113 143.729 18.3184 143.419 18.3184Z" fill="white"/>
<mask id="path-2-inside-1_180_1048" fill="white">
<path d="M5.47379 15.5155C5.20202 15.4455 4.91754 15.3992 4.62105 15.3992C2.32895 15.3992 0 17.255 0 20.7542C0 22.4297 0.507558 24.1743 1.22551 25.5638C1.44236 25.9835 1.67839 26.3708 1.92544 26.714C2.84486 27.974 3.64452 29 4.79057 29C5.33397 29 5.7324 28.8349 6.15141 28.6612C6.6161 28.4687 7.10612 28.2656 7.84732 28.2656C8.59646 28.2656 9.04409 28.4563 9.47565 28.6402C9.87732 28.8114 10.2651 28.9766 10.8691 28.9766C12.122 28.9766 12.9456 27.8696 13.7342 26.7608C13.9088 26.512 14.0634 26.2641 14.1992 26.026C14.5007 25.4972 14.7091 25.0169 14.8377 24.6824C14.9444 24.4047 14.996 24.2276 15 24.2066C14.9281 24.1832 12.5273 23.2382 12.5273 20.567C12.5273 20.2876 12.555 20.0268 12.6037 19.784C12.8629 18.8023 13.5 18 14.1967 17.359C14.3207 17.2671 14.4192 17.204 14.475 17.1683C14.4856 17.1615 14.4946 17.1557 14.502 17.1509C14.5106 17.1453 14.517 17.141 14.5209 17.138C14.4304 17.0113 14.3365 16.8935 14.2399 16.7841C13.8328 16.3231 13.3787 16.0104 12.9357 15.7984C12.4257 15.5542 11.9303 15.4435 11.5384 15.3934C11.2434 15.3557 11.007 15.3524 10.8672 15.3524C10.0639 15.3524 9.34475 15.6307 8.7404 15.8647C8.34623 16.0172 8.00088 16.1509 7.71281 16.1761C7.68078 16.1789 7.64945 16.1804 7.61884 16.1804C7.50762 16.1804 7.39109 16.1639 7.26941 16.1356C7.02128 16.078 6.75172 15.9717 6.46197 15.8574C6.20182 15.7547 5.92539 15.6457 5.6336 15.5597C5.58083 15.5442 5.52756 15.5294 5.47379 15.5155Z"/>
<path d="M7.49091 14.2046C7.49604 14.18 7.50145 14.1554 7.50714 14.1309C7.55669 13.9173 7.62722 13.7087 7.71281 13.5095C7.74499 13.4346 7.77931 13.361 7.81544 13.2889C7.84363 13.2327 7.87294 13.1773 7.9032 13.1231C8.06349 12.8356 8.25064 12.5774 8.44245 12.3644C8.63113 12.1506 8.85486 11.9516 9.09977 11.7753C9.31904 11.6174 9.55531 11.4777 9.79861 11.3618C9.90106 11.313 10.0048 11.2685 10.109 11.2286C10.4607 11.0939 10.8181 11.0123 11.1528 11C11.1768 11.1044 11.1878 11.234 11.1878 11.3618C11.1878 11.45 11.1841 11.5383 11.1769 11.6263C11.1339 12.1503 10.9665 12.6664 10.7188 13.1267C10.6726 13.2127 10.6236 13.2967 10.572 13.3785C10.4617 13.5534 10.3399 13.718 10.2094 13.8692C10.0115 14.1089 9.7664 14.3286 9.49704 14.5159C9.38335 14.5949 9.26533 14.6682 9.14469 14.7347C9.10163 14.7585 9.05824 14.7814 9.0146 14.8034C8.58043 15.0223 8.12096 15.1526 7.71281 15.1526C7.68104 15.1526 7.64927 15.1512 7.61884 15.149C7.55751 15.1444 7.50164 15.1364 7.46223 15.1292C7.45117 15.0842 7.42722 14.9438 7.42722 14.8034C7.42722 14.603 7.44978 14.4032 7.4904 14.2071L7.49091 14.2046Z"/>
</mask>
<path d="M9.99322 18.5919L9.77 17.9813L9.7635 17.9838L9.99322 18.5919ZM9.83192 18.6539L9.59738 18.0477L9.59738 18.0477L9.83192 18.6539ZM9.13966 18.9107L8.93213 18.2947L8.93213 18.2947L9.13966 18.9107ZM7.48065 19.1852L7.35834 19.8236L7.41895 19.8352H7.48065V19.1852ZM5.38053 18.65L5.14148 19.2544L5.14148 19.2544L5.38053 18.65ZM5.26673 18.6052L5.50256 17.9994L5.50255 17.9994L5.26673 18.6052ZM3.62248 19.0454L3.15447 18.5943L3.15447 18.5943L3.62248 19.0454ZM5.14433 26.1439L4.8963 25.5431L4.89629 25.5431L5.14433 26.1439ZM10.5338 26.1436L10.7881 25.5455L10.7881 25.5455L10.5338 26.1436ZM10.6921 26.2106L10.4411 26.8102L10.8501 26.9813L11.1587 26.6631L10.6921 26.2106ZM10.9521 25.9108L10.4444 25.5048L10.4444 25.5048L10.9521 25.9108ZM11.4592 25.2257L11.9889 25.6026L11.9917 25.5985L11.4592 25.2257ZM11.5648 25.07L12.1083 25.4265L12.3918 24.9943L12.0345 24.6207L11.5648 25.07ZM7.84732 23.312L7.68638 23.9418L8.77777 24.2207L8.47309 23.1362L7.84732 23.312ZM7.48065 21.377L8.12811 21.3195L8.07873 20.7633L7.52148 20.7283L7.48065 21.377ZM9.78148 21.0681L9.49427 20.485L9.10172 20.6784L9.13316 21.1148L9.78148 21.0681ZM8.70744 25.6185L8.62343 26.263L8.62343 26.263L8.70744 25.6185ZM10.4346 26.1017L10.1833 26.7012L10.1833 26.7012L10.4346 26.1017ZM11.3138 24.7928L11.8076 24.3701L11.8076 24.3701L11.3138 24.7928ZM11.1977 24.6534L11.7028 24.2442L11.7028 24.2442L11.1977 24.6534ZM10.3921 23.385L9.80637 23.6668L9.80637 23.6668L10.3921 23.385ZM5.5 21.0681L4.89473 21.3051L5.02138 21.6286L5.36072 21.703L5.5 21.0681ZM5.83159 19.568L6.34721 19.9638L6.39531 19.9011L6.427 19.8287L5.83159 19.568ZM3.62248 24.2066L3.94274 24.7722L4.47645 24.47L4.20572 23.9197L3.62248 24.2066ZM10.0665 19.2601C10.1313 19.235 10.1839 19.2147 10.2229 19.1999L9.7635 17.9838C9.71848 18.0008 9.66034 18.0233 9.59738 18.0477L10.0665 19.2601ZM7.48065 19.8352C8.23066 19.8352 9.00622 19.6416 9.3472 19.5267L8.93213 18.2947C8.6795 18.3798 8.04849 18.5352 7.48065 18.5352V19.8352ZM5.14148 19.2544C5.32913 19.3286 5.63312 19.449 5.91007 19.5405L6.31778 18.3061C6.08244 18.2284 5.81342 18.1222 5.61957 18.0455L5.14148 19.2544ZM4.62105 19.0564C4.55912 19.0564 4.53865 19.0444 4.60676 19.0629C4.67323 19.0809 4.80229 19.1219 5.03091 19.2109L5.50255 17.9994C5.0257 17.8138 4.79286 17.7564 4.62105 17.7564V19.0564ZM4.09048 19.4965C4.27607 19.3039 4.38845 19.1908 4.49048 19.117C4.5748 19.0561 4.60654 19.0564 4.62105 19.0564V17.7564C4.25463 17.7564 3.96144 17.8953 3.72888 18.0635C3.51404 18.2188 3.3176 18.4251 3.15447 18.5943L4.09048 19.4965ZM3.65 21C3.65 20.4807 3.71648 20.1606 3.79529 19.9518C3.87031 19.7531 3.96818 19.6234 4.09048 19.4965L3.15447 18.5943C2.94595 18.8107 2.73259 19.086 2.57907 19.4927C2.42934 19.8893 2.35 20.3748 2.35 21H3.65ZM4.89629 25.5431C4.8452 25.5642 4.80048 25.5825 4.76148 25.5982L5.24802 26.8037C5.29043 26.7866 5.33834 26.7671 5.39237 26.7448L4.89629 25.5431ZM7.84732 24.9138C6.44649 24.9138 5.45782 25.3113 4.8963 25.5431L5.39236 26.7448C5.908 26.5319 6.70584 26.2138 7.84732 26.2138V24.9138ZM10.7881 25.5455C10.221 25.3043 9.26769 24.9138 7.84732 24.9138V26.2138C9.00774 26.2138 9.76994 26.5252 10.2794 26.7418L10.7881 25.5455ZM10.943 25.611C10.9041 25.5947 10.8538 25.5734 10.7881 25.5455L10.2794 26.7418C10.3461 26.7702 10.3989 26.7925 10.4411 26.8102L10.943 25.611ZM10.4444 25.5048C10.3497 25.6233 10.2777 25.7042 10.2254 25.7581L11.1587 26.6631C11.2463 26.5727 11.3458 26.4591 11.4597 26.3167L10.4444 25.5048ZM10.9296 24.849C10.7349 25.1226 10.5856 25.3283 10.4444 25.5048L11.4597 26.3167C11.6261 26.1087 11.7942 25.8762 11.9889 25.6025L10.9296 24.849ZM11.0212 24.7135C10.9906 24.7602 10.9591 24.8067 10.9267 24.853L11.9917 25.5985C12.0319 25.5411 12.0707 25.4837 12.1083 25.4265L11.0212 24.7135ZM5.0309 19.2109C5.06087 19.2225 5.09769 19.2371 5.14148 19.2544L5.61957 18.0455C5.57683 18.0286 5.53644 18.0126 5.50256 17.9994L5.0309 19.2109ZM9.34719 19.5267C9.58364 19.447 9.87421 19.3345 10.0665 19.2601L9.59738 18.0477C9.39791 18.1248 9.13594 18.226 8.93213 18.2947L9.34719 19.5267ZM6.8332 21.4345C6.88872 22.0598 7.07022 22.9492 7.22154 23.4878L8.47309 23.1362C8.33851 22.6572 8.17505 21.8483 8.12811 21.3195L6.8332 21.4345ZM8.79144 24.9739C8.50154 24.9361 8.1873 24.9138 7.84732 24.9138V26.2138C8.13007 26.2138 8.38818 26.2323 8.62343 26.263L8.79144 24.9739ZM10.6859 25.5023C10.2587 25.3232 9.63496 25.0838 8.79144 24.9739L8.62343 26.263C9.30207 26.3515 9.80394 26.5422 10.1833 26.7012L10.6859 25.5023ZM10.7881 25.5455C10.7557 25.5317 10.7215 25.5172 10.6859 25.5023L10.1833 26.7012C10.216 26.7149 10.248 26.7284 10.2794 26.7418L10.7881 25.5455ZM10.82 25.2155C10.9107 25.3214 11.0026 25.4227 11.095 25.5193L12.0345 24.6207C11.9582 24.5409 11.8824 24.4574 11.8076 24.3701L10.82 25.2155ZM10.6927 25.0626C10.7348 25.1146 10.7773 25.1655 10.82 25.2155L11.8076 24.3701C11.7724 24.329 11.7375 24.287 11.7028 24.2442L10.6927 25.0626ZM9.80637 23.6668C10.061 24.1961 10.3672 24.6608 10.6927 25.0626L11.7028 24.2442C11.4348 23.9135 11.1849 23.5335 10.9778 23.1032L9.80637 23.6668ZM9.13316 21.1148C9.20303 22.0849 9.4545 22.9354 9.80637 23.6668L10.9778 23.1032C10.6929 22.5109 10.4873 21.8193 10.4298 21.0214L9.13316 21.1148ZM5.36072 21.703C5.68715 21.7747 6.98474 21.9971 7.43983 22.0257L7.52148 20.7283C7.16366 20.7058 5.9407 20.4994 5.63928 20.4332L5.36072 21.703ZM6.10527 20.8312C6.11693 20.861 6.10537 20.8466 6.10511 20.7646C6.10488 20.6926 6.11352 20.5985 6.13447 20.4931C6.17854 20.2714 6.26131 20.0757 6.34721 19.9638L5.31598 19.1722C5.07028 19.4923 4.92792 19.8951 4.85942 20.2397C4.82409 20.4174 4.80458 20.5984 4.80512 20.7687C4.80562 20.9288 4.82373 21.1237 4.89473 21.3051L6.10527 20.8312ZM10.0212 17.8895L9.77002 17.9814L10.2164 19.2023L10.4676 19.1105L10.0212 17.8895ZM5.51852 18.6626L5.23618 19.3073L6.427 19.8287L6.70933 19.184L5.51852 18.6626ZM8.00826 22.6822C7.18787 22.4726 6.45172 22.3052 5.55666 22.723L6.10652 23.901C6.54828 23.6948 6.87463 23.7343 7.68638 23.9418L8.00826 22.6822ZM4.20572 23.9197C3.77046 23.0349 3.65 22.1252 3.65 21H2.35C2.35 22.2175 2.4788 23.3543 3.03923 24.4935L4.20572 23.9197ZM3.30221 23.641L0.905245 24.9982L1.54577 26.1294L3.94274 24.7722L3.30221 23.641ZM5.99161 19.5617L7.35834 19.8236L7.60297 18.5468L6.23624 18.2849L5.99161 19.5617ZM12.8382 19.9962C12.5852 19.8583 12.2972 19.8167 12.0457 19.8108C11.7843 19.8047 11.503 19.8362 11.2232 19.8907C10.6635 19.9996 10.0471 20.2128 9.49427 20.485L10.0687 21.6513C10.5288 21.4246 11.0361 21.2515 11.4716 21.1667C11.6893 21.1243 11.8734 21.1071 12.0153 21.1105C12.1671 21.114 12.2203 21.1399 12.2164 21.1378L12.8382 19.9962ZM5.47379 15.5155L5.14931 16.7744L5.14931 16.7744L5.47379 15.5155ZM1.92544 26.714L0.87031 27.4735L0.875295 27.4803L1.92544 26.714ZM6.15141 28.6612L5.65372 27.4603L5.65372 27.4603L6.15141 28.6612ZM9.47565 28.6402L8.96606 29.8362L8.96606 29.8362L9.47565 28.6402ZM13.7342 26.7608L14.7936 27.5143L14.7982 27.5077L13.7342 26.7608ZM14.1992 26.026L13.0699 25.3821L13.0699 25.3821L14.1992 26.026ZM14.8377 24.6824L13.6242 24.216L13.6242 24.216L14.8377 24.6824ZM15 24.2066L16.2767 24.4516L16.4928 23.3255L15.4025 22.9705L15 24.2066ZM14.1967 17.359L13.4228 16.3144L13.3673 16.3556L13.3165 16.4023L14.1967 17.359ZM14.475 17.1683L15.1763 18.2629L15.1763 18.2629L14.475 17.1683ZM14.502 17.1509L15.2121 18.2398L15.2121 18.2398L14.502 17.1509ZM14.5209 17.138L15.3063 18.174L16.3132 17.4106L15.5788 16.3824L14.5209 17.138ZM14.2399 16.7841L13.2654 17.6446L13.2654 17.6446L14.2399 16.7841ZM12.9357 15.7984L13.497 14.6258L13.497 14.6258L12.9357 15.7984ZM11.5384 15.3934L11.7032 14.1039L11.7032 14.1039L11.5384 15.3934ZM8.7404 15.8647L9.20966 17.077L8.7404 15.8647ZM7.71281 16.1761L7.82622 17.4712L7.82623 17.4712L7.71281 16.1761ZM7.26941 16.1356L7.5634 14.8693L7.5634 14.8693L7.26941 16.1356ZM6.46197 15.8574L6.93903 14.6481L6.93903 14.6481L6.46197 15.8574ZM5.6336 15.5597L5.26626 16.8068L5.26626 16.8068L5.6336 15.5597ZM7.50714 14.1309L8.7735 14.4247L8.7735 14.4247L7.50714 14.1309ZM7.49091 14.2046L6.21816 13.9399L6.21801 13.9406L7.49091 14.2046ZM7.4904 14.2071L6.2175 13.9431L6.21744 13.9434L7.4904 14.2071ZM7.46223 15.1292L6.19977 15.4394L6.40048 16.2563L7.228 16.4079L7.46223 15.1292ZM7.61884 15.149L7.71454 13.8525L7.71454 13.8525L7.61884 15.149ZM9.0146 14.8034L8.42928 13.6426L8.42927 13.6426L9.0146 14.8034ZM9.14469 14.7347L8.51663 13.5965L8.51663 13.5965L9.14469 14.7347ZM9.49704 14.5159L8.75496 13.4485L8.75496 13.4485L9.49704 14.5159ZM10.2094 13.8692L9.22512 13.02L9.21599 13.0306L9.2071 13.0414L10.2094 13.8692ZM10.572 13.3785L9.47237 12.6851L9.47237 12.6851L10.572 13.3785ZM10.7188 13.1267L11.8637 13.7427L11.8637 13.7427L10.7188 13.1267ZM11.1769 11.6263L9.88124 11.5199L9.88124 11.5199L11.1769 11.6263ZM11.1528 11L12.4199 10.7093L12.1795 9.66146L11.1052 9.70087L11.1528 11ZM10.109 11.2286L10.5738 12.4426L10.5738 12.4426L10.109 11.2286ZM9.79861 11.3618L9.23972 10.1881L9.23972 10.1881L9.79861 11.3618ZM9.09977 11.7753L9.85939 12.8302L9.85939 12.8302L9.09977 11.7753ZM8.44245 12.3644L9.40858 13.2343L9.41712 13.2246L8.44245 12.3644ZM7.9032 13.1231L6.76779 12.4899L6.76779 12.49L7.9032 13.1231ZM7.81544 13.2889L8.97758 13.8715L8.97758 13.8715L7.81544 13.2889ZM7.71281 13.5095L6.51836 12.9964L6.51836 12.9964L7.71281 13.5095ZM12.6037 19.784L11.3468 19.4522L11.3368 19.4899L11.3291 19.5281L12.6037 19.784ZM1.22551 25.5638L2.38045 24.9671L2.38045 24.9671L1.22551 25.5638ZM4.62105 16.6992C4.78201 16.6992 4.9549 16.7243 5.14931 16.7744L5.79827 14.2567C5.44913 14.1667 5.05308 14.0992 4.62105 14.0992V16.6992ZM1.3 20.7542C1.3 17.9274 3.09164 16.6992 4.62105 16.6992V14.0992C1.56626 14.0992 -1.3 16.5826 -1.3 20.7542H1.3ZM4.79057 27.7C4.65134 27.7 4.4622 27.652 4.14466 27.365C3.80212 27.0554 3.44763 26.5946 2.97558 25.9477L0.875295 27.4803C1.32267 28.0934 1.82771 28.7756 2.40137 29.294C3.00003 29.835 3.78374 30.3 4.79057 30.3V27.7ZM5.65372 27.4603C5.23002 27.6359 5.04774 27.7 4.79057 27.7V30.3C5.62021 30.3 6.23477 30.0339 6.6491 29.8622L5.65372 27.4603ZM7.84732 26.9656C6.83244 26.9656 6.13991 27.2588 5.65372 27.4603L6.6491 29.8622C7.09229 29.6785 7.37981 29.5656 7.84732 29.5656V26.9656ZM9.98525 27.4443C9.51401 27.2435 8.86759 26.9656 7.84732 26.9656V29.5656C8.10481 29.5656 8.28917 29.5975 8.43898 29.6383C8.60102 29.6824 8.7442 29.7416 8.96606 29.8362L9.98525 27.4443ZM10.8691 27.6766C10.6934 27.6766 10.564 27.6537 10.4489 27.6213C10.3186 27.5846 10.195 27.5336 9.98525 27.4443L8.96606 29.8362C9.38869 30.0163 9.98387 30.2766 10.8691 30.2766V27.6766ZM12.6748 26.0073C12.2687 26.5783 11.9437 27.0141 11.6057 27.3186C11.2925 27.6007 11.07 27.6766 10.8691 27.6766V30.2766C11.9211 30.2766 12.7368 29.799 13.3458 29.2504C13.9299 28.7242 14.411 28.0521 14.7936 27.5143L12.6748 26.0073ZM13.0699 25.3821C12.952 25.5888 12.819 25.8019 12.6701 26.0139L14.7982 27.5077C14.9987 27.222 15.1749 26.9393 15.3285 26.6698L13.0699 25.3821ZM13.6242 24.216C13.5141 24.5026 13.3325 24.9215 13.0699 25.3821L15.3285 26.6698C15.6689 26.0729 15.9042 25.5311 16.0512 25.1487L13.6242 24.216ZM13.7233 23.9616C13.7297 23.9283 13.7359 23.9036 13.737 23.899C13.7393 23.8899 13.741 23.8837 13.7416 23.8814C13.7429 23.8767 13.743 23.8764 13.7414 23.8818C13.7384 23.8919 13.7321 23.9126 13.722 23.9434C13.7019 24.0046 13.6696 24.0977 13.6242 24.216L16.0512 25.1487C16.1563 24.8752 16.2483 24.5995 16.2767 24.4516L13.7233 23.9616ZM11.2273 20.567C11.2273 22.3419 12.0409 23.5693 12.846 24.3266C13.6171 25.0521 14.4114 25.3821 14.5975 25.4427L15.4025 22.9705C15.5167 23.0077 15.0747 22.8535 14.6275 22.4329C14.2142 22.044 13.8273 21.4633 13.8273 20.567H11.2273ZM13.7737 16.0737C13.7116 16.1135 13.5832 16.1956 13.4228 16.3144L14.9705 18.4036C15.0582 18.3386 15.1268 18.2946 15.1763 18.2629L13.7737 16.0737ZM13.7919 16.062C13.7899 16.0633 13.7859 16.0659 13.7737 16.0737L15.1763 18.2629C15.1852 18.2572 15.1993 18.2482 15.2121 18.2398L13.7919 16.062ZM13.7356 16.102C13.7488 16.092 13.7596 16.0843 13.7663 16.0795C13.7734 16.0745 13.7789 16.0707 13.7824 16.0683C13.7889 16.0639 13.7928 16.0614 13.7919 16.062L15.2121 18.2398C15.2174 18.2364 15.2606 18.2086 15.3063 18.174L13.7356 16.102ZM13.2654 17.6446C13.3324 17.7204 13.3985 17.8032 13.4631 17.8936L15.5788 16.3824C15.4624 16.2194 15.3406 16.0666 15.2144 15.9237L13.2654 17.6446ZM12.3745 16.971C12.678 17.1162 12.9861 17.3283 13.2654 17.6446L15.2144 15.9237C14.6796 15.3179 14.0795 14.9046 13.497 14.6258L12.3745 16.971ZM11.3737 16.6829C11.6664 16.7203 12.0202 16.8014 12.3745 16.971L13.497 14.6258C12.8311 14.307 12.1941 14.1666 11.7032 14.1039L11.3737 16.6829ZM10.8672 16.6524C10.9805 16.6524 11.1557 16.6551 11.3737 16.6829L11.7032 14.1039C11.3311 14.0564 11.0336 14.0524 10.8672 14.0524V16.6524ZM9.20966 17.077C9.83888 16.8335 10.3412 16.6524 10.8672 16.6524V14.0524C9.78651 14.0524 8.85062 14.428 8.27115 14.6523L9.20966 17.077ZM7.82623 17.4712C8.34004 17.4262 8.88203 17.2038 9.20966 17.077L8.27115 14.6523C8.06551 14.7319 7.91632 14.7892 7.78587 14.8315C7.72404 14.8516 7.67787 14.8644 7.64378 14.8724C7.60938 14.8804 7.59612 14.8814 7.5994 14.8811L7.82623 17.4712ZM7.61884 17.4804C7.6908 17.4804 7.76012 17.477 7.82622 17.4712L7.5994 14.8811C7.60143 14.8809 7.6081 14.8804 7.61884 14.8804V17.4804ZM6.97543 17.4019C7.16293 17.4455 7.38155 17.4804 7.61884 17.4804V14.8804C7.62735 14.8804 7.62752 14.881 7.61763 14.8797C7.60767 14.8784 7.59005 14.8755 7.5634 14.8693L6.97543 17.4019ZM5.9849 17.0667C6.24943 17.171 6.61476 17.3182 6.97543 17.4019L7.5634 14.8693C7.4278 14.8378 7.254 14.7723 6.93903 14.6481L5.9849 17.0667ZM5.26626 16.8068C5.49368 16.8738 5.71746 16.9612 5.9849 17.0667L6.93903 14.6481C6.68617 14.5483 6.3571 14.4176 6.00094 14.3127L5.26626 16.8068ZM5.14931 16.7744C5.18762 16.7843 5.22656 16.7951 5.26626 16.8068L6.00095 14.3127C5.9351 14.2933 5.86751 14.2745 5.79827 14.2567L5.14931 16.7744ZM6.24077 13.8371C6.23287 13.8711 6.22533 13.9054 6.21816 13.9399L8.76367 14.4694C8.76675 14.4546 8.77003 14.4397 8.7735 14.4247L6.24077 13.8371ZM6.21801 13.9406L6.2175 13.9431L8.7633 14.4712L8.76381 14.4687L6.21801 13.9406ZM6.21744 13.9434C6.16069 14.2172 6.12722 14.5057 6.12722 14.8034H8.72722C8.72722 14.7003 8.73886 14.5891 8.76336 14.4709L6.21744 13.9434ZM6.12722 14.8034C6.12722 15.0575 6.16606 15.3021 6.19977 15.4394L8.72469 14.819C8.72677 14.8275 8.72829 14.8342 8.72926 14.8386C8.73027 14.8431 8.731 14.8466 8.73145 14.8489C8.73235 14.8532 8.73268 14.8552 8.73258 14.8546C8.73236 14.8534 8.7314 14.8477 8.73031 14.839C8.72922 14.8304 8.72834 14.8217 8.72778 14.8139C8.72721 14.8059 8.72722 14.8023 8.72722 14.8034H6.12722ZM7.228 16.4079C7.30863 16.4227 7.41091 16.4372 7.52315 16.4454L7.71454 13.8525C7.71072 13.8522 7.70584 13.8517 7.70091 13.8511C7.69582 13.8504 7.69389 13.85 7.69646 13.8505L7.228 16.4079ZM7.52315 16.4454C7.57994 16.4496 7.64405 16.4526 7.71281 16.4526V13.8526C7.71803 13.8526 7.7186 13.8528 7.71454 13.8525L7.52315 16.4454ZM7.71281 16.4526C8.37785 16.4526 9.03902 16.247 9.59992 15.9642L8.42927 13.6426C8.12183 13.7977 7.86407 13.8526 7.71281 13.8526V16.4526ZM9.59992 15.9642C9.65805 15.9349 9.71569 15.9044 9.77275 15.8729L8.51663 13.5965C8.48758 13.6125 8.45843 13.6279 8.42928 13.6426L9.59992 15.9642ZM9.77275 15.8729C9.93247 15.7848 10.0886 15.6879 10.2391 15.5832L8.75496 13.4485C8.67815 13.5019 8.59819 13.5515 8.51663 13.5965L9.77275 15.8729ZM10.2391 15.5832C10.5931 15.3371 10.9292 15.0392 11.2118 14.697L9.2071 13.0414C9.09374 13.1786 8.93967 13.32 8.75496 13.4485L10.2391 15.5832ZM11.1937 14.7184C11.3673 14.5172 11.5275 14.3004 11.6716 14.0719L9.47237 12.6851C9.3959 12.8063 9.31251 12.9187 9.22512 13.02L11.1937 14.7184ZM11.6716 14.0719C11.7391 13.9649 11.8032 13.8551 11.8637 13.7427L9.57401 12.5108C9.54199 12.5703 9.50803 12.6285 9.47237 12.6851L11.6716 14.0719ZM11.8637 13.7427C12.1849 13.1455 12.4131 12.4573 12.4725 11.7326L9.88124 11.5199C9.8547 11.8433 9.7481 12.1872 9.57401 12.5108L11.8637 13.7427ZM12.4725 11.7326C12.4826 11.6102 12.4878 11.4865 12.4878 11.3618H9.88782C9.88782 11.4136 9.88564 11.4663 9.88124 11.5199L12.4725 11.7326ZM12.4878 11.3618C12.4878 11.1727 12.4726 10.9391 12.4199 10.7093L9.88573 11.2907C9.88361 11.2815 9.88305 11.2773 9.8833 11.279C9.88352 11.2804 9.8842 11.2852 9.88497 11.2935C9.88658 11.3106 9.88782 11.3343 9.88782 11.3618H12.4878ZM11.1052 9.70087C10.5999 9.71941 10.1005 9.83977 9.64413 10.0145L10.5738 12.4426C10.8208 12.348 11.0364 12.3051 11.2005 12.2991L11.1052 9.70087ZM9.64413 10.0145C9.50718 10.0669 9.37212 10.125 9.23972 10.1881L10.3575 12.5355C10.43 12.501 10.5023 12.47 10.5738 12.4426L9.64413 10.0145ZM9.23972 10.1881C8.92614 10.3374 8.62269 10.5168 8.34014 10.7203L9.85939 12.8302C10.0154 12.7179 10.1845 12.6179 10.3575 12.5355L9.23972 10.1881ZM8.34014 10.7203C8.0253 10.947 7.72745 11.21 7.46778 11.5042L9.41712 13.2246C9.53482 13.0913 9.68441 12.9562 9.85939 12.8302L8.34014 10.7203ZM7.47637 11.4945C7.21877 11.7806 6.975 12.1183 6.76779 12.4899L9.03861 13.7562C9.15198 13.5529 9.2825 13.3743 9.40854 13.2343L7.47637 11.4945ZM6.76779 12.49C6.7284 12.5606 6.69017 12.6327 6.65329 12.7063L8.97758 13.8715C8.9971 13.8326 9.01747 13.7941 9.03861 13.7562L6.76779 12.49ZM6.65329 12.7063C6.60604 12.8006 6.56091 12.8973 6.51836 12.9964L8.90727 14.0226C8.92908 13.9718 8.95258 13.9214 8.97758 13.8715L6.65329 12.7063ZM6.51836 12.9964C6.40545 13.2592 6.30944 13.5411 6.24077 13.8371L8.7735 14.4247C8.80394 14.2935 8.84899 14.1583 8.90727 14.0226L6.51836 12.9964ZM13.3165 16.4023C12.5284 17.1274 11.6949 18.1336 11.3468 19.4522L13.8606 20.1158C14.0309 19.471 14.4716 18.8726 15.0769 18.3157L13.3165 16.4023ZM11.3291 19.5281C11.2635 19.8547 11.2273 20.2013 11.2273 20.567H13.8273C13.8273 20.3739 13.8464 20.1988 13.8783 20.0399L11.3291 19.5281ZM2.98055 25.9546C2.77425 25.6679 2.57096 25.3358 2.38045 24.9671L0.070567 26.1605C0.313754 26.6312 0.582544 27.0736 0.870332 27.4734L2.98055 25.9546ZM2.38045 24.9671C1.74072 23.7289 1.3 22.1878 1.3 20.7542H-1.3C-1.3 22.6717 -0.725607 24.6196 0.070567 26.1605L2.38045 24.9671Z" fill="white" mask="url(#path-2-inside-1_180_1048)"/>
</svg>
