<svg width="148" height="44" viewBox="0 0 148 44" fill="none" xmlns="http://www.w3.org/2000/svg">
<path d="M20.4922 27L23.917 17.1357H25.6738V19.1045H25.0723L22.6592 27H20.4922ZM22.3242 24.6074L22.8301 23.0625H27.3896L27.8955 24.6074H22.3242ZM27.6016 27L25.1953 19.1045V17.1357H26.3438L29.7754 27H27.6016ZM31.252 29.4951V19.4736H33.248V20.6357H33.3711C33.5033 20.3669 33.6764 20.1367 33.8906 19.9453C34.1094 19.7539 34.3646 19.6081 34.6562 19.5078C34.9479 19.403 35.2715 19.3506 35.627 19.3506C36.2559 19.3506 36.7982 19.5078 37.2539 19.8223C37.7096 20.1367 38.0605 20.5833 38.3066 21.1621C38.5573 21.7363 38.6826 22.4245 38.6826 23.2266V23.2402C38.6826 24.0469 38.5596 24.7396 38.3135 25.3184C38.0674 25.8971 37.7165 26.3415 37.2607 26.6514C36.805 26.9613 36.2604 27.1162 35.627 27.1162C35.2806 27.1162 34.9593 27.0638 34.6631 26.959C34.3714 26.8496 34.1139 26.6969 33.8906 26.501C33.6719 26.305 33.4987 26.0703 33.3711 25.7969H33.248V29.4951H31.252ZM34.9434 25.4619C35.2988 25.4619 35.6019 25.373 35.8525 25.1953C36.1077 25.0176 36.3037 24.7624 36.4404 24.4297C36.5817 24.097 36.6523 23.7005 36.6523 23.2402V23.2266C36.6523 22.7663 36.5817 22.3698 36.4404 22.0371C36.3037 21.7044 36.1077 21.4492 35.8525 21.2715C35.6019 21.0938 35.2988 21.0049 34.9434 21.0049C34.5924 21.0049 34.2871 21.0938 34.0273 21.2715C33.7721 21.4492 33.5739 21.7044 33.4326 22.0371C33.2959 22.3652 33.2275 22.7617 33.2275 23.2266V23.2402C33.2275 23.696 33.2982 24.0924 33.4395 24.4297C33.5807 24.7624 33.779 25.0176 34.0342 25.1953C34.2939 25.373 34.597 25.4619 34.9434 25.4619ZM40.3164 29.4951V19.4736H42.3125V20.6357H42.4355C42.5677 20.3669 42.7409 20.1367 42.9551 19.9453C43.1738 19.7539 43.429 19.6081 43.7207 19.5078C44.0124 19.403 44.3359 19.3506 44.6914 19.3506C45.3203 19.3506 45.8626 19.5078 46.3184 19.8223C46.7741 20.1367 47.125 20.5833 47.3711 21.1621C47.6217 21.7363 47.7471 22.4245 47.7471 23.2266V23.2402C47.7471 24.0469 47.624 24.7396 47.3779 25.3184C47.1318 25.8971 46.7809 26.3415 46.3252 26.6514C45.8695 26.9613 45.3249 27.1162 44.6914 27.1162C44.3451 27.1162 44.0238 27.0638 43.7275 26.959C43.4359 26.8496 43.1784 26.6969 42.9551 26.501C42.7363 26.305 42.5632 26.0703 42.4355 25.7969H42.3125V29.4951H40.3164ZM44.0078 25.4619C44.3633 25.4619 44.6663 25.373 44.917 25.1953C45.1722 25.0176 45.3682 24.7624 45.5049 24.4297C45.6462 24.097 45.7168 23.7005 45.7168 23.2402V23.2266C45.7168 22.7663 45.6462 22.3698 45.5049 22.0371C45.3682 21.7044 45.1722 21.4492 44.917 21.2715C44.6663 21.0938 44.3633 21.0049 44.0078 21.0049C43.6569 21.0049 43.3516 21.0938 43.0918 21.2715C42.8366 21.4492 42.6383 21.7044 42.4971 22.0371C42.3604 22.3652 42.292 22.7617 42.292 23.2266V23.2402C42.292 23.696 42.3626 24.0924 42.5039 24.4297C42.6452 24.7624 42.8434 25.0176 43.0986 25.1953C43.3584 25.373 43.6615 25.4619 44.0078 25.4619ZM49.4492 27V16.5957H51.4453V27H49.4492ZM56.8184 27.1572C56.0573 27.1572 55.401 27 54.8496 26.6855C54.3027 26.3665 53.8812 25.9154 53.585 25.332C53.2887 24.7487 53.1406 24.0537 53.1406 23.2471V23.2402C53.1406 22.4427 53.2865 21.75 53.5781 21.1621C53.8743 20.5742 54.2913 20.1185 54.8291 19.7949C55.3714 19.4714 56.0072 19.3096 56.7363 19.3096C57.4701 19.3096 58.1035 19.4668 58.6367 19.7812C59.1699 20.0957 59.5801 20.5355 59.8672 21.1006C60.1543 21.6657 60.2979 22.3288 60.2979 23.0898V23.7119H54.1387V22.4609H59.3408L58.4043 23.6436V22.8438C58.4043 22.3926 58.3337 22.0166 58.1924 21.7158C58.0557 21.415 57.8643 21.1895 57.6182 21.0391C57.3766 20.8841 57.0941 20.8066 56.7705 20.8066C56.4515 20.8066 56.1667 20.8864 55.916 21.0459C55.6699 21.2008 55.474 21.431 55.3281 21.7363C55.1868 22.0371 55.1162 22.4062 55.1162 22.8438V23.6504C55.1162 24.0742 55.1868 24.4365 55.3281 24.7373C55.4694 25.0381 55.6699 25.2682 55.9297 25.4277C56.1895 25.5872 56.4993 25.667 56.8594 25.667C57.151 25.667 57.3994 25.6237 57.6045 25.5371C57.8096 25.4505 57.9736 25.3503 58.0967 25.2363C58.2243 25.1178 58.3109 25.0107 58.3564 24.915L58.377 24.874H60.2363L60.2227 24.9424C60.1634 25.1794 60.0563 25.4277 59.9014 25.6875C59.7464 25.9427 59.5322 26.182 59.2588 26.4053C58.9899 26.6286 58.6527 26.8109 58.2471 26.9521C57.846 27.0889 57.3698 27.1572 56.8184 27.1572ZM65.7393 27V17.1357H69.6221C70.6019 17.1357 71.4359 17.3271 72.124 17.71C72.8122 18.0882 73.3385 18.6396 73.7031 19.3643C74.0677 20.0889 74.25 20.9661 74.25 21.9961V22.0098C74.25 23.0716 74.0677 23.974 73.7031 24.7168C73.3431 25.4596 72.819 26.027 72.1309 26.4189C71.4427 26.8063 70.6064 27 69.6221 27H65.7393ZM67.8037 25.2979H69.2939C69.9046 25.2979 70.4219 25.1725 70.8457 24.9219C71.2695 24.6712 71.5908 24.3044 71.8096 23.8213C72.0329 23.3337 72.1445 22.7412 72.1445 22.0439V22.0303C72.1445 21.3512 72.0306 20.7747 71.8027 20.3008C71.5794 19.8223 71.2536 19.46 70.8252 19.2139C70.4014 18.9632 69.891 18.8379 69.2939 18.8379H67.8037V25.2979ZM79.3223 27.1572C78.5612 27.1572 77.9049 27 77.3535 26.6855C76.8066 26.3665 76.3851 25.9154 76.0889 25.332C75.7926 24.7487 75.6445 24.0537 75.6445 23.2471V23.2402C75.6445 22.4427 75.7904 21.75 76.082 21.1621C76.3783 20.5742 76.7952 20.1185 77.333 19.7949C77.8753 19.4714 78.5111 19.3096 79.2402 19.3096C79.974 19.3096 80.6074 19.4668 81.1406 19.7812C81.6738 20.0957 82.084 20.5355 82.3711 21.1006C82.6582 21.6657 82.8018 22.3288 82.8018 23.0898V23.7119H76.6426V22.4609H81.8447L80.9082 23.6436V22.8438C80.9082 22.3926 80.8376 22.0166 80.6963 21.7158C80.5596 21.415 80.3682 21.1895 80.1221 21.0391C79.8805 20.8841 79.598 20.8066 79.2744 20.8066C78.9554 20.8066 78.6706 20.8864 78.4199 21.0459C78.1738 21.2008 77.9779 21.431 77.832 21.7363C77.6908 22.0371 77.6201 22.4062 77.6201 22.8438V23.6504C77.6201 24.0742 77.6908 24.4365 77.832 24.7373C77.9733 25.0381 78.1738 25.2682 78.4336 25.4277C78.6934 25.5872 79.0033 25.667 79.3633 25.667C79.6549 25.667 79.9033 25.6237 80.1084 25.5371C80.3135 25.4505 80.4775 25.3503 80.6006 25.2363C80.7282 25.1178 80.8148 25.0107 80.8604 24.915L80.8809 24.874H82.7402L82.7266 24.9424C82.6673 25.1794 82.5602 25.4277 82.4053 25.6875C82.2503 25.9427 82.0361 26.182 81.7627 26.4053C81.4938 26.6286 81.1566 26.8109 80.751 26.9521C80.3499 27.0889 79.8737 27.1572 79.3223 27.1572ZM87.4297 27.1572C86.7461 27.1572 86.1628 27.0638 85.6797 26.877C85.2012 26.6855 84.8252 26.4235 84.5518 26.0908C84.2829 25.7581 84.1257 25.3776 84.0801 24.9492L84.0732 24.9219H86.0352L86.0488 24.9492C86.1309 25.1816 86.2858 25.373 86.5137 25.5234C86.7461 25.6738 87.0583 25.749 87.4502 25.749C87.7054 25.749 87.9287 25.7148 88.1201 25.6465C88.3115 25.5736 88.4619 25.4756 88.5713 25.3525C88.6807 25.2295 88.7354 25.0859 88.7354 24.9219V24.9082C88.7354 24.7077 88.6533 24.5413 88.4893 24.4092C88.3252 24.277 88.0518 24.1676 87.6689 24.0811L86.4111 23.8145C85.9326 23.7142 85.5339 23.5684 85.2148 23.377C84.8958 23.181 84.6566 22.9417 84.4971 22.6592C84.3421 22.3766 84.2646 22.0485 84.2646 21.6748V21.668C84.2646 21.194 84.3945 20.7816 84.6543 20.4307C84.9186 20.0752 85.2855 19.7995 85.7549 19.6035C86.2288 19.4076 86.778 19.3096 87.4023 19.3096C88.0586 19.3096 88.6169 19.4098 89.0771 19.6104C89.5374 19.8063 89.8906 20.0706 90.1367 20.4033C90.3874 20.7314 90.5264 21.0983 90.5537 21.5039V21.5312H88.7012L88.6943 21.4971C88.6396 21.292 88.5029 21.112 88.2842 20.957C88.0654 20.7975 87.7692 20.7178 87.3955 20.7178C87.1676 20.7178 86.9648 20.752 86.7871 20.8203C86.6094 20.8887 86.4681 20.9844 86.3633 21.1074C86.263 21.2305 86.2129 21.3763 86.2129 21.5449V21.5518C86.2129 21.6839 86.2471 21.8001 86.3154 21.9004C86.3838 22.0007 86.4954 22.0872 86.6504 22.1602C86.8053 22.2331 87.0127 22.2992 87.2725 22.3584L88.5234 22.625C89.2754 22.7891 89.8314 23.0352 90.1914 23.3633C90.5514 23.6914 90.7314 24.1335 90.7314 24.6895V24.6963C90.7314 25.193 90.5902 25.626 90.3076 25.9951C90.0251 26.3643 89.6354 26.6514 89.1387 26.8564C88.6419 27.057 88.0723 27.1572 87.4297 27.1572ZM92.3789 27V19.4736H94.375V27H92.3789ZM93.3838 18.3184C93.0785 18.3184 92.8141 18.2113 92.5908 17.9971C92.3675 17.7783 92.2559 17.5163 92.2559 17.2109C92.2559 16.901 92.3675 16.639 92.5908 16.4248C92.8141 16.2061 93.0785 16.0967 93.3838 16.0967C93.6937 16.0967 93.958 16.2061 94.1768 16.4248C94.3955 16.639 94.5049 16.901 94.5049 17.2109C94.5049 17.5163 94.3955 17.7783 94.1768 17.9971C93.958 18.2113 93.6937 18.3184 93.3838 18.3184ZM99.707 29.6455C99.0098 29.6455 98.4128 29.5544 97.916 29.3721C97.4238 29.1943 97.0365 28.9414 96.7539 28.6133C96.4714 28.2897 96.3027 27.916 96.248 27.4922V27.458H98.2236L98.2305 27.4854C98.2852 27.7041 98.4401 27.8818 98.6953 28.0186C98.9551 28.1553 99.306 28.2236 99.748 28.2236C100.281 28.2236 100.696 28.1029 100.992 27.8613C101.288 27.6243 101.437 27.2871 101.437 26.8496V25.4482H101.313C101.177 25.7126 100.997 25.9359 100.773 26.1182C100.555 26.3005 100.299 26.4395 100.008 26.5352C99.7207 26.6263 99.404 26.6719 99.0576 26.6719C98.4287 26.6719 97.8841 26.5215 97.4238 26.2207C96.9681 25.9154 96.6149 25.4915 96.3643 24.9492C96.1182 24.4069 95.9951 23.7803 95.9951 23.0693V23.0557C95.9951 22.3174 96.1182 21.6702 96.3643 21.1143C96.6149 20.5583 96.9704 20.1253 97.4307 19.8154C97.8955 19.5055 98.4492 19.3506 99.0918 19.3506C99.4382 19.3506 99.7549 19.4053 100.042 19.5146C100.334 19.624 100.589 19.779 100.808 19.9795C101.026 20.18 101.202 20.4215 101.334 20.7041H101.43V19.4736H103.426V26.7676C103.426 27.3555 103.273 27.8636 102.968 28.292C102.667 28.7249 102.239 29.0576 101.683 29.29C101.127 29.527 100.468 29.6455 99.707 29.6455ZM99.7344 25.1406C100.094 25.1406 100.402 25.054 100.657 24.8809C100.912 24.7031 101.108 24.4593 101.245 24.1494C101.386 23.8395 101.457 23.4772 101.457 23.0625V23.0488C101.457 22.6387 101.386 22.2764 101.245 21.9619C101.108 21.6475 100.912 21.4036 100.657 21.2305C100.402 21.0573 100.094 20.9707 99.7344 20.9707C99.3743 20.9707 99.069 21.0573 98.8184 21.2305C98.5677 21.4036 98.374 21.6475 98.2373 21.9619C98.1051 22.2718 98.0391 22.6341 98.0391 23.0488V23.0625C98.0391 23.4727 98.1051 23.835 98.2373 24.1494C98.374 24.4593 98.5677 24.7031 98.8184 24.8809C99.069 25.054 99.3743 25.1406 99.7344 25.1406ZM105.422 27V19.4736H107.418V20.6357H107.541C107.714 20.2256 107.983 19.902 108.348 19.665C108.712 19.4281 109.163 19.3096 109.701 19.3096C110.54 19.3096 111.178 19.5557 111.615 20.0479C112.057 20.5355 112.278 21.2305 112.278 22.1328V27H110.282V22.584C110.282 22.0508 110.171 21.6475 109.947 21.374C109.724 21.1006 109.375 20.9639 108.901 20.9639C108.596 20.9639 108.332 21.0345 108.108 21.1758C107.89 21.3125 107.719 21.5062 107.596 21.7568C107.477 22.0075 107.418 22.3037 107.418 22.6455V27H105.422ZM120.037 27L117.426 17.1357H119.572L121.11 24.1836H121.22L123.018 17.1357H124.761L126.593 24.1836H126.702L128.227 17.1357H130.359L127.741 27H125.807L123.94 20.3555H123.831L121.985 27H120.037ZM131.973 27V19.4736H133.969V27H131.973ZM132.978 18.3184C132.672 18.3184 132.408 18.2113 132.185 17.9971C131.961 17.7783 131.85 17.5163 131.85 17.2109C131.85 16.901 131.961 16.639 132.185 16.4248C132.408 16.2061 132.672 16.0967 132.978 16.0967C133.287 16.0967 133.552 16.2061 133.771 16.4248C133.989 16.639 134.099 16.901 134.099 17.2109C134.099 17.5163 133.989 17.7783 133.771 17.9971C133.552 18.2113 133.287 18.3184 132.978 18.3184ZM136.047 27V16.5957H138.043V27H136.047ZM140.784 27L138.474 23.7324L139.964 22.5361L143.143 27H140.784ZM137.906 24.6211L137.838 22.4473H138.166L140.682 19.4736H142.944L139.848 22.8916L138.781 23.6914L137.906 24.6211ZM144.414 27V19.4736H146.41V27H144.414ZM145.419 18.3184C145.114 18.3184 144.849 18.2113 144.626 17.9971C144.403 17.7783 144.291 17.5163 144.291 17.2109C144.291 16.901 144.403 16.639 144.626 16.4248C144.849 16.2061 145.114 16.0967 145.419 16.0967C145.729 16.0967 145.993 16.2061 146.212 16.4248C146.431 16.639 146.54 16.901 146.54 17.2109C146.54 17.5163 146.431 17.7783 146.212 17.9971C145.993 18.2113 145.729 18.3184 145.419 18.3184Z" fill="black"/>
<mask id="path-2-inside-1_180_970" fill="white">
<path d="M5.29133 16.5155C5.02862 16.4455 4.75362 16.3992 4.46702 16.3992C2.25132 16.3992 0 18.255 0 21.7542C0 23.4297 0.490639 25.1743 1.18466 26.5638C1.39428 26.9835 1.62245 27.3708 1.86126 27.714C2.75003 28.974 3.52303 30 4.63088 30C5.15617 30 5.54132 29.8349 5.94636 29.6612C6.39557 29.4687 6.86925 29.2656 7.58574 29.2656C8.30991 29.2656 8.74262 29.4563 9.1598 29.6402C9.54808 29.8114 9.92291 29.9766 10.5068 29.9766C11.7179 29.9766 12.5141 28.8696 13.2764 27.7608C13.4452 27.512 13.5947 27.2641 13.7259 27.026C14.0173 26.4972 14.2188 26.0169 14.3431 25.6824C14.4462 25.4047 14.4961 25.2276 14.5 25.2066C14.4305 25.1832 12.1098 24.2382 12.1098 21.567C12.1098 21.2876 12.1365 21.0268 12.1836 20.784C12.4341 19.8023 13.05 19 13.7235 18.359C13.8434 18.2671 13.9386 18.204 13.9925 18.1683C14.0027 18.1615 14.0115 18.1557 14.0186 18.1509C14.0269 18.1453 14.0331 18.141 14.0369 18.138C13.9494 18.0113 13.8586 17.8935 13.7652 17.7841C13.3717 17.3231 12.9328 17.0104 12.5046 16.7984C12.0115 16.5542 11.5326 16.4435 11.1538 16.3934C10.8686 16.3557 10.6401 16.3524 10.505 16.3524C9.7284 16.3524 9.03326 16.6307 8.44905 16.8647C8.06802 17.0172 7.73418 17.1509 7.45572 17.1761C7.42475 17.1789 7.39447 17.1804 7.36488 17.1804C7.25736 17.1804 7.14472 17.1639 7.0271 17.1356C6.78724 17.078 6.52666 16.9717 6.24657 16.8574C5.99509 16.7547 5.72788 16.6457 5.44582 16.5597C5.3948 16.5442 5.34331 16.5294 5.29133 16.5155Z"/>
<path d="M7.24122 15.2046C7.24617 15.18 7.2514 15.1554 7.2569 15.1309C7.3048 14.9173 7.37298 14.7087 7.45572 14.5095C7.48683 14.4346 7.52 14.361 7.55492 14.2889C7.58218 14.2327 7.61051 14.1773 7.63976 14.1231C7.79471 13.8356 7.97562 13.5774 8.16104 13.3644C8.34343 13.1506 8.55969 12.9516 8.79644 12.7753C9.00841 12.6174 9.2368 12.4777 9.47199 12.3618C9.57103 12.313 9.67127 12.2685 9.772 12.2286C10.112 12.0939 10.4575 12.0123 10.781 12C10.8042 12.1044 10.8149 12.234 10.8149 12.3618C10.8149 12.45 10.8113 12.5383 10.8043 12.6263C10.7627 13.1503 10.601 13.6664 10.3615 14.1267C10.3168 14.2127 10.2694 14.2967 10.2196 14.3785C10.113 14.5534 9.99525 14.718 9.86912 14.8692C9.67774 15.1089 9.44086 15.3286 9.18047 15.5159C9.07057 15.5949 8.95648 15.6682 8.83987 15.7347C8.79824 15.7585 8.7563 15.7814 8.71411 15.8034C8.29441 16.0223 7.85026 16.1526 7.45572 16.1526C7.42501 16.1526 7.39429 16.1512 7.36488 16.149C7.30559 16.1444 7.25158 16.1364 7.21349 16.1292C7.2028 16.0842 7.17965 15.9438 7.17965 15.8034C7.17965 15.603 7.20145 15.4032 7.24072 15.2071L7.24122 15.2046Z"/>
</mask>
<path d="M9.66011 19.5919L9.43015 18.9839L9.42351 18.9864L9.66011 19.5919ZM9.50419 19.6539L9.26267 19.0504H9.26267L9.50419 19.6539ZM8.83501 19.9107L8.62109 19.2969L8.62108 19.2969L8.83501 19.9107ZM7.2313 20.1852L7.10492 20.8228L7.1675 20.8352H7.2313V20.1852ZM5.20117 19.65L4.95505 20.2516L4.95505 20.2516L5.20117 19.65ZM5.09117 19.6052L5.33402 19.0022L5.33401 19.0022L5.09117 19.6052ZM3.50173 20.0454L3.02615 19.6023L3.50173 20.0454ZM4.97285 27.1439L4.71757 26.5462L4.71756 26.5462L4.97285 27.1439ZM10.1826 27.1436L10.4444 26.5487L10.4443 26.5487L10.1826 27.1436ZM10.3357 27.2106L10.0774 27.807L10.4971 27.9888L10.8099 27.6551L10.3357 27.2106ZM10.587 26.9108L10.0727 26.5132L10.0727 26.5132L10.587 26.9108ZM11.0773 26.2257L11.6129 26.5941L11.6156 26.59L11.0773 26.2257ZM11.1793 26.07L11.7282 26.4181L11.996 25.9958L11.6565 25.6287L11.1793 26.07ZM7.58574 24.312L7.41961 24.9404L8.50809 25.2282L8.21302 24.1416L7.58574 24.312ZM7.2313 22.377L7.87892 22.3214L7.83114 21.7647L7.27352 21.7284L7.2313 22.377ZM9.45543 22.0681L9.16033 21.489L8.77712 21.6843L8.807 22.1133L9.45543 22.0681ZM8.41719 26.6185L8.33034 27.2626H8.33034L8.41719 26.6185ZM10.0868 27.1017L9.82815 27.6981L9.82816 27.6981L10.0868 27.1017ZM10.9367 25.7928L11.4375 25.3784L11.4375 25.3784L10.9367 25.7928ZM10.8245 25.6534L11.3362 25.2526L11.3362 25.2526L10.8245 25.6534ZM10.0457 24.385L9.45632 24.6591L10.0457 24.385ZM5.31667 22.0681L4.70874 22.2982L4.83232 22.6248L5.17281 22.702L5.31667 22.0681ZM5.63721 20.568L6.15921 20.9553L6.2055 20.8929L6.23578 20.8214L5.63721 20.568ZM3.50173 25.2066L3.83025 25.7675L4.34485 25.466L4.08874 24.9275L3.50173 25.2066ZM9.74571 20.2573C9.80846 20.2322 9.85911 20.212 9.89672 20.1973L9.42351 18.9864C9.37983 19.0035 9.32347 19.0261 9.26267 19.0504L9.74571 20.2573ZM7.2313 20.8352C7.96251 20.8352 8.7169 20.6402 9.04893 20.5245L8.62108 19.2969C8.37929 19.3812 7.774 19.5352 7.2313 19.5352V20.8352ZM4.95505 20.2516C5.13626 20.3257 5.43108 20.4465 5.69996 20.5384L6.12029 19.3082C5.89397 19.2309 5.63487 19.1251 5.44729 19.0484L4.95505 20.2516ZM4.46702 20.0564C4.40173 20.0564 4.37789 20.0433 4.44207 20.0614C4.50452 20.0789 4.62794 20.1193 4.84833 20.2081L5.33401 19.0022C4.87382 18.8169 4.64217 18.7564 4.46702 18.7564V20.0564ZM3.9773 20.4885C4.1571 20.2955 4.26484 20.1834 4.36196 20.1108C4.44172 20.0511 4.46514 20.0564 4.46702 20.0564V18.7564C4.10065 18.7564 3.80998 18.9003 3.58342 19.0697C3.37424 19.2261 3.18345 19.4335 3.02615 19.6023L3.9773 20.4885ZM3.55 22C3.55 21.4788 3.61453 21.1561 3.69155 20.9451C3.76479 20.7444 3.85996 20.6145 3.9773 20.4885L3.02615 19.6023C2.8237 19.8196 2.61801 20.0947 2.47033 20.4994C2.32643 20.8937 2.25 21.3768 2.25 22H3.55ZM4.71756 26.5462C4.66825 26.5672 4.6251 26.5854 4.5875 26.6011L5.08835 27.8008C5.12945 27.7836 5.17584 27.764 5.22814 27.7417L4.71756 26.5462ZM7.58574 25.9138C6.22288 25.9138 5.26114 26.314 4.71757 26.5462L5.22814 27.7417C5.72582 27.5292 6.49104 27.2138 7.58574 27.2138V25.9138ZM10.4443 26.5487C9.89507 26.307 8.96754 25.9138 7.58574 25.9138V27.2138C8.69871 27.2138 9.42949 27.5225 9.92091 27.7386L10.4443 26.5487ZM10.5939 26.6141C10.5564 26.5978 10.5079 26.5766 10.4444 26.5487L9.9209 27.7386C9.98543 27.767 10.0365 27.7893 10.0774 27.807L10.5939 26.6141ZM10.0727 26.5132C9.9812 26.6316 9.9117 26.7124 9.86144 26.766L10.8099 27.6551C10.8948 27.5645 10.9911 27.4507 11.1013 27.3083L10.0727 26.5132ZM10.5417 25.8574C10.3535 26.1311 10.2091 26.3368 10.0727 26.5132L11.1013 27.3083C11.2621 27.1002 11.4247 26.8677 11.6128 26.5941L10.5417 25.8574ZM10.6303 25.7219C10.6007 25.7686 10.5703 25.8152 10.5389 25.8615L11.6156 26.59C11.6544 26.5327 11.692 26.4753 11.7282 26.4181L10.6303 25.7219ZM4.84833 20.2081C4.87719 20.2197 4.91269 20.2342 4.95505 20.2516L5.4473 19.0484C5.40601 19.0315 5.36687 19.0155 5.33402 19.0022L4.84833 20.2081ZM9.04893 20.5245C9.27841 20.4445 9.56009 20.3316 9.74571 20.2573L9.26267 19.0504C9.06963 19.1277 8.81719 19.2286 8.62109 19.2969L9.04893 20.5245ZM6.58368 22.4326C6.63721 23.0563 6.81239 23.9445 6.95846 24.4824L8.21302 24.1416C8.08271 23.6618 7.92443 22.8517 7.87892 22.3214L6.58368 22.4326ZM8.50404 25.9743C8.22199 25.9363 7.91634 25.9138 7.58574 25.9138V27.2138C7.85712 27.2138 8.10474 27.2322 8.33034 27.2626L8.50404 25.9743ZM10.3454 26.5054C9.93139 26.3259 9.32477 26.0849 8.50404 25.9743L8.33034 27.2626C8.98103 27.3504 9.4625 27.5395 9.82815 27.6981L10.3454 26.5054ZM10.4443 26.5487C10.413 26.5349 10.3799 26.5204 10.3454 26.5054L9.82816 27.6981C9.85975 27.7118 9.89055 27.7253 9.92091 27.7386L10.4443 26.5487ZM10.4359 26.2072C10.5237 26.3132 10.6126 26.4145 10.702 26.5113L11.6565 25.6287C11.5829 25.5491 11.5097 25.4656 11.4375 25.3784L10.4359 26.2072ZM10.3127 26.0542C10.3535 26.1062 10.3946 26.1572 10.4359 26.2072L11.4375 25.3784C11.4035 25.3373 11.3697 25.2954 11.3362 25.2526L10.3127 26.0542ZM9.45632 24.6591C9.70217 25.1877 9.99795 25.6522 10.3128 26.0542L11.3362 25.2526C11.0774 24.9221 10.8355 24.5419 10.6351 24.1109L9.45632 24.6591ZM8.807 22.1133C8.87434 23.0804 9.1167 23.9288 9.45632 24.6591L10.6351 24.1109C10.3591 23.5175 10.1596 22.8237 10.1039 22.023L8.807 22.1133ZM5.17281 22.702C5.48911 22.7738 6.74589 22.9968 7.18908 23.0256L7.27352 21.7284C6.93089 21.7061 5.75115 21.5002 5.46052 21.4343L5.17281 22.702ZM5.92459 21.8381C5.93488 21.8653 5.92353 21.8482 5.92327 21.7646C5.92305 21.691 5.93158 21.5955 5.95204 21.4891C5.99511 21.2649 6.07593 21.0676 6.15921 20.9553L5.11521 20.1807C4.87794 20.5004 4.74113 20.9016 4.67539 21.2437C4.61443 21.561 4.58628 21.9746 4.70874 22.2982L5.92459 21.8381ZM9.67301 18.892L9.43016 18.9839L9.89007 20.1998L10.1329 20.108L9.67301 18.892ZM5.31155 19.6699L5.03863 20.3146L6.23578 20.8214L6.5087 20.1767L5.31155 19.6699ZM7.75187 23.6836C6.95855 23.4739 6.23326 23.3024 5.35456 23.7267L5.91985 24.8973C6.33341 24.6976 6.6352 24.733 7.41961 24.9404L7.75187 23.6836ZM4.08874 24.9275C3.66675 24.04 3.55 23.1272 3.55 22H2.25C2.25 23.2155 2.3742 24.3491 2.91472 25.4857L4.08874 24.9275ZM3.1732 24.6457L0.856136 26.0029L1.51318 27.1247L3.83025 25.7675L3.1732 24.6457ZM5.78375 20.5609L7.10492 20.8228L7.35767 19.5476L6.0365 19.2857L5.78375 20.5609ZM12.4288 21.0007C12.1777 20.8592 11.8923 20.8168 11.6452 20.8108C11.3884 20.8046 11.1133 20.8366 10.8408 20.8915C10.2959 21.0012 9.69686 21.2156 9.16033 21.489L9.75052 22.6473C10.1932 22.4218 10.6804 22.2499 11.0974 22.1659C11.3059 22.1239 11.4807 22.1072 11.6138 22.1104C11.7565 22.1139 11.8009 22.1391 11.7907 22.1333L12.4288 21.0007ZM5.29133 16.5155L4.9564 17.7717H4.9564L5.29133 16.5155ZM1.86126 27.714L0.794124 28.4565L0.798946 28.4633L1.86126 27.714ZM5.94636 29.6612L5.43414 28.4664H5.43413L5.94636 29.6612ZM9.1598 29.6402L8.63545 30.8298L9.1598 29.6402ZM13.2764 27.7608L14.3476 28.4973L14.3521 28.4907L13.2764 27.7608ZM13.7259 27.026L12.5874 26.3985L12.5874 26.3985L13.7259 27.026ZM14.3431 25.6824L13.1244 25.2297V25.2297L14.3431 25.6824ZM14.5 25.2066L15.7782 25.4437L15.9839 24.3347L14.915 23.9746L14.5 25.2066ZM13.7235 18.359L12.9327 17.3272L12.8776 17.3694L12.8272 17.4173L13.7235 18.359ZM13.9925 18.1683L14.7107 19.2519L14.7107 19.2519L13.9925 18.1683ZM14.0186 18.1509L14.7456 19.2286L14.7456 19.2286L14.0186 18.1509ZM14.0369 18.138L14.8391 19.1609L15.8017 18.4061L15.1067 17.3994L14.0369 18.138ZM13.7652 17.7841L12.7764 18.6281L12.7764 18.6281L13.7652 17.7841ZM12.5046 16.7984L13.0814 15.6334L13.0814 15.6334L12.5046 16.7984ZM11.1538 16.3934L11.3241 15.1046H11.3241L11.1538 16.3934ZM8.44905 16.8647L7.96582 15.6578L8.44905 16.8647ZM7.45572 17.1761L7.573 18.4708L7.57301 18.4708L7.45572 17.1761ZM7.0271 17.1356L7.33068 15.8716L7.33068 15.8716L7.0271 17.1356ZM6.24657 16.8574L6.73777 15.6537V15.6537L6.24657 16.8574ZM5.44582 16.5597L5.06686 17.8033L5.06687 17.8033L5.44582 16.5597ZM7.2569 15.1309L8.52539 15.4154L8.52539 15.4154L7.2569 15.1309ZM7.24122 15.2046L5.96673 14.9483L5.9666 14.949L7.24122 15.2046ZM7.24072 15.2071L5.9661 14.9515L5.96604 14.9518L7.24072 15.2071ZM7.21349 16.1292L5.94867 16.4296L6.1434 17.2496L6.97146 17.4065L7.21349 16.1292ZM7.36488 16.149L7.46386 14.8527L7.46385 14.8527L7.36488 16.149ZM8.71411 15.8034L8.11287 14.6508L8.11286 14.6508L8.71411 15.8034ZM8.83987 15.7347L8.19541 14.6057L8.83987 15.7347ZM9.18047 15.5159L8.42143 14.4605L8.42143 14.4605L9.18047 15.5159ZM9.86912 14.8692L8.87075 14.0366L8.86185 14.0472L8.85319 14.0581L9.86912 14.8692ZM10.2196 14.3785L9.10957 13.7018L9.10957 13.7018L10.2196 14.3785ZM10.3615 14.1267L11.5149 14.7266L10.3615 14.1267ZM10.8043 12.6263L9.50839 12.5235V12.5235L10.8043 12.6263ZM10.781 12L12.0502 11.7185L11.8154 10.6598L10.7318 10.7009L10.781 12ZM9.772 12.2286L10.2507 13.4372L10.2507 13.4372L9.772 12.2286ZM9.47199 12.3618L8.89754 11.1956L8.89754 11.1956L9.47199 12.3618ZM8.79644 12.7753L9.57302 13.8178L9.57302 13.8178L8.79644 12.7753ZM8.16104 13.3644L9.14167 14.2179L9.15 14.2082L8.16104 13.3644ZM7.63976 14.1231L6.49542 13.5062L6.49542 13.5062L7.63976 14.1231ZM7.55492 14.2889L8.72479 14.8558L8.72479 14.8558L7.55492 14.2889ZM7.45572 14.5095L6.25512 14.0109V14.0109L7.45572 14.5095ZM12.1836 20.784L10.9239 20.4626L10.9146 20.4992L10.9074 20.5363L12.1836 20.784ZM1.18466 26.5638L2.34766 25.9829L1.18466 26.5638ZM4.46702 17.6992C4.61337 17.6992 4.77314 17.7228 4.9564 17.7717L5.62627 15.2594C5.2841 15.1682 4.89387 15.0992 4.46702 15.0992V17.6992ZM1.3 21.7542C1.3 18.8848 3.05437 17.6992 4.46702 17.6992V15.0992C1.44827 15.0992 -1.3 17.6252 -1.3 21.7542H1.3ZM4.63088 28.7C4.52606 28.7 4.35811 28.6663 4.05172 28.3799C3.72238 28.072 3.38037 27.6123 2.92357 26.9647L0.798946 28.4633C1.23092 29.0757 1.71979 29.759 2.27611 30.2791C2.85538 30.8207 3.62785 31.3 4.63088 31.3V28.7ZM5.43413 28.4664C5.02303 28.6427 4.8604 28.7 4.63088 28.7V31.3C5.45195 31.3 6.0596 31.0271 6.45859 30.8561L5.43413 28.4664ZM7.58574 27.9656C6.58636 27.9656 5.90416 28.2649 5.43414 28.4664L6.45859 30.8561C6.88697 30.6724 7.15214 30.5656 7.58574 30.5656V27.9656ZM9.68415 28.4507C9.22759 28.2494 8.59022 27.9656 7.58574 27.9656V30.5656C7.8266 30.5656 7.99726 30.5963 8.13537 30.6352C8.28632 30.6778 8.42045 30.735 8.63545 30.8298L9.68415 28.4507ZM10.5068 28.6766C10.3457 28.6766 10.2283 28.655 10.1235 28.6245C10.0029 28.5893 9.88757 28.5403 9.68415 28.4507L8.63545 30.8298C9.0439 31.0098 9.63226 31.2766 10.5068 31.2766V28.6766ZM12.2051 27.0243C11.8121 27.596 11.4986 28.0306 11.1736 28.3334C10.8719 28.6146 10.6716 28.6766 10.5068 28.6766V31.2766C11.553 31.2766 12.3564 30.7851 12.9461 30.2356C13.5127 29.7077 13.9784 29.0344 14.3476 28.4973L12.2051 27.0243ZM12.5874 26.3985C12.4733 26.6055 12.3445 26.8188 12.2006 27.0309L14.3521 28.4907C14.5459 28.2051 14.7161 27.9226 14.8644 27.6534L12.5874 26.3985ZM13.1244 25.2297C13.0176 25.5174 12.8416 25.9372 12.5874 26.3985L14.8644 27.6534C15.193 27.0573 15.4201 26.5164 15.5617 26.135L13.1244 25.2297ZM13.2218 24.9695C13.2278 24.9373 13.2336 24.9133 13.2347 24.9088C13.2367 24.9001 13.2383 24.8941 13.2389 24.892C13.24 24.8876 13.2401 24.8876 13.2385 24.8931C13.2355 24.9036 13.2293 24.9246 13.2194 24.9557C13.1999 25.0173 13.1685 25.1109 13.1244 25.2297L15.5617 26.135C15.6635 25.8612 15.7514 25.588 15.7782 25.4437L13.2218 24.9695ZM10.8098 21.567C10.8098 23.3258 11.5889 24.5491 12.3722 25.3114C13.1212 26.0403 13.8957 26.3748 14.085 26.4386L14.915 23.9746C15.0349 24.015 14.6142 23.8653 14.1855 23.4481C13.791 23.0642 13.4098 22.4794 13.4098 21.567H10.8098ZM13.2743 17.0847C13.214 17.1247 13.0889 17.2075 12.9327 17.3272L14.5142 19.3909C14.5978 19.3268 14.6631 19.2834 14.7107 19.2519L13.2743 17.0847ZM13.2916 17.0732C13.2916 17.0732 13.2915 17.0733 13.2913 17.0734C13.2911 17.0736 13.2907 17.0738 13.2903 17.0741C13.2895 17.0746 13.2883 17.0754 13.2868 17.0764C13.2835 17.0786 13.2797 17.0811 13.2743 17.0847L14.7107 19.2519C14.7192 19.2462 14.7331 19.2371 14.7456 19.2286L13.2916 17.0732ZM13.2347 17.1151C13.2479 17.1047 13.2586 17.0967 13.2654 17.0917C13.2725 17.0865 13.2782 17.0825 13.2817 17.0801C13.2853 17.0775 13.288 17.0757 13.2894 17.0747C13.2902 17.0742 13.2907 17.0738 13.2911 17.0736C13.2912 17.0734 13.2914 17.0734 13.2915 17.0733C13.2915 17.0733 13.2915 17.0732 13.2915 17.0732C13.2916 17.0732 13.2916 17.0732 13.2916 17.0732L14.7456 19.2286C14.7507 19.2252 14.7937 19.1966 14.8391 19.1609L13.2347 17.1151ZM12.7764 18.6281C12.8409 18.7036 12.9047 18.7862 12.9671 18.8766L15.1067 17.3994C14.9941 17.2363 14.8763 17.0834 14.754 16.9402L12.7764 18.6281ZM11.9277 17.9634C12.214 18.1051 12.5079 18.3135 12.7764 18.6281L14.754 16.9402C14.2355 16.3327 13.6516 15.9157 13.0814 15.6334L11.9277 17.9634ZM10.9835 17.6822C11.2595 17.7187 11.5932 17.7977 11.9277 17.9634L13.0814 15.6334C12.4297 15.3107 11.8057 15.1683 11.3241 15.1046L10.9835 17.6822ZM10.505 17.6524C10.6127 17.6524 10.7779 17.655 10.9835 17.6822L11.3241 15.1046C10.9593 15.0564 10.6676 15.0524 10.505 15.0524V17.6524ZM8.93229 18.0715C9.5431 17.8269 10.015 17.6524 10.505 17.6524V15.0524C9.44182 15.0524 8.52342 15.4345 7.96582 15.6578L8.93229 18.0715ZM7.57301 18.4708C8.08426 18.4245 8.62015 18.1965 8.93229 18.0715L7.96582 15.6578C7.76654 15.7376 7.6243 15.7941 7.50053 15.8356C7.37437 15.8779 7.33127 15.8821 7.33842 15.8814L7.57301 18.4708ZM7.36488 18.4804C7.43725 18.4804 7.50683 18.4768 7.573 18.4708L7.33843 15.8814C7.34267 15.881 7.35169 15.8804 7.36488 15.8804V18.4804ZM6.72352 18.3997C6.90881 18.4442 7.12693 18.4804 7.36488 18.4804V15.8804C7.37747 15.8804 7.38147 15.8813 7.37511 15.8805C7.36865 15.8796 7.35432 15.8772 7.33068 15.8716L6.72352 18.3997ZM5.75537 18.061C6.00945 18.1647 6.36811 18.3143 6.72352 18.3997L7.33068 15.8716C7.20637 15.8417 7.04387 15.7787 6.73777 15.6537L5.75537 18.061ZM5.06687 17.8033C5.28298 17.8691 5.49636 17.9553 5.75537 18.061L6.73777 15.6537C6.49382 15.5542 6.17277 15.4222 5.82476 15.3162L5.06687 17.8033ZM4.9564 17.7717C4.99248 17.7813 5.02926 17.7918 5.06686 17.8033L5.82477 15.3162C5.76035 15.2966 5.69414 15.2775 5.62627 15.2594L4.9564 17.7717ZM5.98841 14.8464C5.98083 14.8802 5.9736 14.9142 5.96673 14.9483L8.5157 15.4609C8.51874 15.4458 8.52197 15.4306 8.52539 15.4154L5.98841 14.8464ZM5.9666 14.949L5.9661 14.9515L8.51534 15.4627L8.51584 15.4603L5.9666 14.949ZM5.96604 14.9518C5.91164 15.2233 5.87965 15.509 5.87965 15.8034H8.47965C8.47965 15.697 8.49126 15.583 8.5154 15.4624L5.96604 14.9518ZM5.87965 15.8034C5.87965 16.0536 5.9167 16.295 5.94867 16.4296L8.47831 15.8288C8.48025 15.837 8.48165 15.8434 8.48255 15.8475C8.48347 15.8519 8.48413 15.8551 8.48453 15.8572C8.48532 15.8612 8.48557 15.8628 8.48543 15.8619C8.48511 15.86 8.48409 15.8537 8.48295 15.8443C8.48182 15.8351 8.4809 15.8256 8.4803 15.817C8.48001 15.8128 8.47984 15.8095 8.47974 15.8069C8.47964 15.8044 8.47965 15.8032 8.47965 15.8034H5.87965ZM6.97146 17.4065C7.05205 17.4217 7.15398 17.4366 7.26591 17.4452L7.46385 14.8527C7.46197 14.8526 7.45889 14.8523 7.45554 14.8518C7.45204 14.8514 7.4516 14.8512 7.45552 14.8519L6.97146 17.4065ZM7.26591 17.4452C7.32258 17.4495 7.38674 17.4526 7.45572 17.4526V14.8526C7.45979 14.8526 7.46238 14.8527 7.46343 14.8527C7.4645 14.8528 7.46464 14.8528 7.46386 14.8527L7.26591 17.4452ZM7.45572 17.4526C8.11624 17.4526 8.76774 17.2417 9.31536 16.956L8.11286 14.6508C7.82108 14.803 7.58428 14.8526 7.45572 14.8526V17.4526ZM9.31535 16.956C9.37222 16.9263 9.42857 16.8956 9.48433 16.8637L8.19541 14.6057C8.16792 14.6214 8.14038 14.6364 8.11287 14.6508L9.31535 16.956ZM9.48433 16.8637C9.6404 16.7747 9.79274 16.6768 9.93952 16.5712L8.42143 14.4605C8.34841 14.513 8.27256 14.5617 8.19541 14.6057L9.48433 16.8637ZM9.93952 16.5712C10.2847 16.323 10.6112 16.0233 10.8851 15.6803L8.85319 14.0581C8.74427 14.1945 8.59698 14.3342 8.42143 14.4605L9.93952 16.5712ZM10.8675 15.7018C11.0356 15.5002 11.1905 15.2833 11.3296 15.0551L9.10957 13.7018C9.03546 13.8234 8.95487 13.9357 8.87075 14.0366L10.8675 15.7018ZM11.3296 15.0551C11.3947 14.9483 11.4566 14.8386 11.5149 14.7266L9.2082 13.5269C9.17709 13.5867 9.14413 13.6451 9.10957 13.7018L11.3296 15.0551ZM11.5149 14.7266C11.8246 14.131 12.0433 13.4471 12.1002 12.7291L9.50839 12.5235C9.4822 12.8536 9.37729 13.2018 9.2082 13.5269L11.5149 14.7266ZM12.1002 12.7291C12.1099 12.6078 12.1149 12.4853 12.1149 12.3618H9.51489C9.51489 12.4148 9.51273 12.4687 9.50839 12.5235L12.1002 12.7291ZM12.1149 12.3618C12.1149 12.1748 12.1003 11.9445 12.0502 11.7185L9.51189 12.2815C9.50875 12.2673 9.51012 12.2692 9.51196 12.2894C9.51364 12.308 9.51489 12.333 9.51489 12.3618H12.1149ZM10.7318 10.7009C10.2317 10.7199 9.74002 10.843 9.29328 11.0199L10.2507 13.4372C10.4839 13.3448 10.6834 13.3046 10.8303 13.2991L10.7318 10.7009ZM9.29328 11.0199C9.15912 11.0731 9.02696 11.1319 8.89754 11.1956L10.0464 13.528C10.1151 13.4942 10.1834 13.4639 10.2507 13.4372L9.29328 11.0199ZM8.89754 11.1956C8.59102 11.3466 8.29501 11.5277 8.01987 11.7327L9.57302 13.8178C9.72181 13.707 9.88257 13.6087 10.0464 13.528L8.89754 11.1956ZM8.01987 11.7327C7.7132 11.9611 7.42383 12.2256 7.17207 12.5206L9.15 14.2082C9.26303 14.0757 9.40619 13.9421 9.57302 13.8178L8.01987 11.7327ZM7.18045 12.5109C6.93077 12.7978 6.69524 13.1355 6.49542 13.5062L8.7841 14.7399C8.89418 14.5357 9.02046 14.3571 9.14162 14.2179L7.18045 12.5109ZM6.49542 13.5062C6.45743 13.5767 6.42058 13.6487 6.38505 13.722L8.72479 14.8558C8.74378 14.8167 8.76358 14.778 8.7841 14.7399L6.49542 13.5062ZM6.38505 13.722C6.33952 13.8159 6.29607 13.9123 6.25512 14.0109L8.65632 15.008C8.67759 14.9568 8.70047 14.906 8.72479 14.8558L6.38505 13.722ZM6.25512 14.0109C6.14645 14.2726 6.05426 14.5528 5.98841 14.8464L8.52539 15.4154C8.55534 15.2818 8.59951 15.1449 8.65632 15.008L6.25512 14.0109ZM12.8272 17.4173C12.0616 18.1461 11.2585 19.1516 10.9239 20.4626L13.4432 21.1054C13.6097 20.4529 14.0384 19.8539 14.6197 19.3007L12.8272 17.4173ZM10.9074 20.5363C10.8445 20.8604 10.8098 21.2042 10.8098 21.567H13.4098C13.4098 21.371 13.4284 21.1931 13.4598 21.0317L10.9074 20.5363ZM2.92837 26.9715C2.72892 26.6849 2.53217 26.3523 2.34766 25.9829L0.021656 27.1447C0.256386 27.6146 0.515978 28.0567 0.794147 28.4565L2.92837 26.9715ZM2.34766 25.9829C1.72832 24.7429 1.3 23.1962 1.3 21.7542H-1.3C-1.3 23.6632 -0.747041 25.6056 0.0216561 27.1447L2.34766 25.9829Z" fill="black" mask="url(#path-2-inside-1_180_970)"/>
</svg>
